<?xml version="1.0" encoding="UTF-8"?>
<svg version="1.1" xmlns="http://www.w3.org/2000/svg" width="289" height="359">
<path d="M0 0 C1.27536539 6.84460804 1.12622488 13.64638381 1.09765625 20.58984375 C1.0962413 21.88950577 1.09482635 23.18916779 1.09336853 24.5282135 C1.08957334 27.96243253 1.07976908 31.39660842 1.06866455 34.83081055 C1.05838555 38.34358131 1.05385708 41.85635912 1.04882812 45.36914062 C1.03814376 52.24611133 1.02110388 59.12305359 1 66 C1.90005957 65.99907821 2.80011913 65.99815641 3.72745323 65.99720669 C25.60092507 65.97514799 47.47439499 65.95858675 69.3478756 65.94818783 C79.92560602 65.94302567 90.50332902 65.9359845 101.08105469 65.92456055 C110.29772179 65.91461126 119.51438353 65.90814599 128.73105586 65.90591151 C133.61379512 65.90460482 138.49651903 65.90152158 143.37925339 65.89426994 C147.97068535 65.88750589 152.56209556 65.88538383 157.15353203 65.88689232 C158.8426532 65.88661617 160.53177507 65.88461332 162.22089195 65.88079453 C164.5192265 65.87585128 166.81747791 65.87700407 169.11581421 65.87974548 C171.0488141 65.87836279 171.0488141 65.87836279 173.02086449 65.87695217 C176 66 176 66 178 67 C178 77.56 178 88.12 178 99 C173.22380402 100.91047839 169.87306798 101.28118099 164.89102173 101.24723816 C164.07906165 101.24965257 163.26710156 101.25206699 162.43053663 101.25455457 C159.71223534 101.2601862 156.99416961 101.25153239 154.27587891 101.24291992 C152.32593217 101.24399296 150.37598575 101.24593195 148.42604065 101.24867249 C143.13054959 101.25352121 137.83514276 101.24586417 132.53966188 101.23571944 C126.99758277 101.2269362 121.45550628 101.22869646 115.91342163 101.2290802 C106.60405061 101.22814348 97.29471217 101.21945943 87.98535156 101.20581055 C77.22618496 101.1900942 66.46705406 101.18481214 55.7078768 101.1855461 C44.25181388 101.18622204 32.79576471 101.17927686 21.33970594 101.1700995 C18.04022768 101.1679695 14.74075163 101.16725849 11.44127274 101.16686058 C6.25222661 101.16585468 1.06321037 101.15973776 -4.12582588 101.14969444 C-6.02893071 101.14677799 -7.93203898 101.14554234 -9.83514595 101.14612198 C-12.4358137 101.14661425 -15.03639831 101.14094142 -17.63705444 101.13371277 C-18.76280178 101.13603567 -18.76280178 101.13603567 -19.91129148 101.1384055 C-24.38440138 101.1179193 -28.6003323 100.72651532 -33 100 C-33.84804782 95.5773308 -34.13620801 91.38117886 -34.16113281 86.88061523 C-34.16609772 86.19526703 -34.17106262 85.50991882 -34.17617798 84.80380249 C-34.19068539 82.5553891 -34.19757995 80.30704609 -34.203125 78.05859375 C-34.20595238 77.28702501 -34.20877975 76.51545628 -34.21169281 75.72050667 C-34.22663392 71.64285062 -34.23589726 67.56522952 -34.24023438 63.48754883 C-34.24573253 59.2820701 -34.26980302 55.07691293 -34.29820633 50.8715353 C-34.31684076 47.62957318 -34.32203858 44.38768872 -34.32357025 41.14567757 C-34.32659207 39.59515678 -34.33460471 38.0446372 -34.34775543 36.49416924 C-34.36484439 34.32585989 -34.36293001 32.15833992 -34.35644531 29.98999023 C-34.36191376 28.14182961 -34.36191376 28.14182961 -34.36749268 26.2563324 C-33.86118668 21.76998283 -32.22361175 19.20403396 -29.046875 16.078125 C-8.84615385 0 -8.84615385 0 0 0 Z " fill="#010001" transform="translate(77,234)"/>
<path d="M0 0 C-1.17094671 3.81035896 -2.4564066 7.07217771 -4.609375 10.42578125 C-5.11726562 11.22306641 -5.62515625 12.02035156 -6.1484375 12.84179688 C-6.67695313 13.65712891 -7.20546875 14.47246094 -7.75 15.3125 C-8.26304687 16.11623047 -8.77609375 16.91996094 -9.3046875 17.74804688 C-10.34032732 19.3652583 -11.38789219 20.97489534 -12.44726562 22.57666016 C-13.49246864 24.20789996 -14.48074363 25.87687504 -15.41210938 27.57568359 C-18.84864147 33.56354451 -18.84864147 33.56354451 -22.03515625 34.77148438 C-24.39523832 35.0587448 -26.6245766 35.07526382 -29 35 C-30.53670627 35.05168442 -32.07318916 35.11043219 -33.609375 35.17578125 C-34.83527344 35.2070813 -34.83527344 35.2070813 -36.0859375 35.23901367 C-64.36235378 36.01899913 -92.40847803 39.89053183 -120 46 C-121.07523926 46.23444824 -122.15047852 46.46889648 -123.25830078 46.71044922 C-159.84114292 54.82152531 -196.39798713 69.057902 -224 95 C-224.93972656 95.82564453 -224.93972656 95.82564453 -225.8984375 96.66796875 C-232.3343811 102.56515689 -236.41032762 110.33607547 -240.609375 117.8984375 C-241.06828125 118.59195313 -241.5271875 119.28546875 -242 120 C-242.66 120 -243.32 120 -244 120 C-244.92368268 95.41227759 -239.81154247 76.45680018 -223 58 C-222.39929688 57.31808594 -221.79859375 56.63617188 -221.1796875 55.93359375 C-180.43681063 12.28051139 -108.0368263 5.08721228 -52 1 C-51.01531738 0.92797363 -50.03063477 0.85594727 -49.01611328 0.78173828 C-32.70512409 -0.34346628 -16.33984205 -0.10320569 0 0 Z " fill="#020102" transform="translate(261,157)"/>
<path d="M0 0 C1.68535825 0.00186993 3.37071706 0.00329111 5.05607605 0.00428772 C9.4470068 0.00806768 13.83790336 0.01785819 18.2288208 0.0289917 C22.72741229 0.03930418 27.22600942 0.04380621 31.72460938 0.04882812 C40.51824468 0.05948549 49.31185244 0.07650611 58.10546875 0.09765625 C59.23052979 4.79013062 59.23052979 4.79013062 58.10498047 7.55786133 C57.32791748 8.82472778 57.32791748 8.82472778 56.53515625 10.1171875 C55.96796875 11.05755859 55.40078125 11.99792969 54.81640625 12.96679688 C54.21054687 13.93810547 53.6046875 14.90941406 52.98046875 15.91015625 C52.3978125 16.86986328 51.81515625 17.82957031 51.21484375 18.81835938 C49.52804226 21.58872282 47.82215582 24.34572055 46.10546875 27.09765625 C45.7042556 28.13135849 45.7042556 28.13135849 45.29493713 29.1859436 C44.15230883 31.72496475 43.21433638 33.26048416 41.10546875 35.09765625 C36.27343656 36.26285878 31.46048524 36.07130383 26.5234375 35.95703125 C25.06675892 35.95438826 23.61006765 35.95586364 22.15339661 35.96124268 C18.31355884 35.96702001 14.47556303 35.92863304 10.6361084 35.87738037 C4.5324917 35.79995236 -1.57093774 35.77594578 -7.67499352 35.77747345 C-9.78232223 35.7697839 -11.88785795 35.73513684 -13.99482727 35.69720459 C-33.91578122 35.50600517 -51.52100898 42.0299536 -65.89453125 56.09765625 C-72.30442364 63.48600573 -77.98108886 71.59366821 -80.765625 81.05859375 C-81.20068359 82.53199219 -81.20068359 82.53199219 -81.64453125 84.03515625 C-81.86625 84.93105469 -82.08796875 85.82695312 -82.31640625 86.75 C-84.86763254 90.54526486 -88.62590931 90.95270432 -92.89453125 92.09765625 C-94.56542543 92.6158884 -96.23469905 93.13937336 -97.90234375 93.66796875 C-99.60763094 94.18765045 -101.31336379 94.70587189 -103.01953125 95.22265625 C-103.87417969 95.48691406 -104.72882813 95.75117188 -105.609375 96.0234375 C-110.37744666 97.46631018 -114.94153196 98.547323 -119.89453125 99.09765625 C-120.62862187 76.34084711 -110.68627616 55.60427439 -96.89453125 38.09765625 C-96.2603125 37.27910156 -95.62609375 36.46054688 -94.97265625 35.6171875 C-78.90791155 16.22278418 -53.09794878 3.42784156 -28.30490112 0.82588196 C-18.85593866 0.02104009 -9.47369078 -0.03128182 0 0 Z " fill="#020203" transform="translate(211.89453125,72.90234375)"/>
<path d="M0 0 C0.68429077 -0.00095673 1.36858154 -0.00191345 2.0736084 -0.00289917 C3.52286877 -0.0035808 4.97213218 -0.00172773 6.42138672 0.00244141 C8.64687928 0.00778998 10.87217001 0.0024959 13.09765625 -0.00390625 C14.50260461 -0.00324547 15.90755285 -0.0019643 17.3125 0 C18.59962891 0.00112793 19.88675781 0.00225586 21.21289062 0.00341797 C24.15625 0.1328125 24.15625 0.1328125 25.15625 1.1328125 C25.28702972 3.73209877 25.35301687 6.3061378 25.37744141 8.90722656 C25.38889915 9.7273545 25.40035688 10.54748243 25.41216183 11.39246273 C25.44908101 14.14441517 25.47858643 16.89639332 25.5078125 19.6484375 C25.53171679 21.59011655 25.55588668 23.53179234 25.58030701 25.47346497 C25.85056906 47.7296244 26.01246651 69.98693576 26.13889313 92.2443161 C26.15539712 94.99087869 26.17439299 97.73740957 26.19451904 100.48394775 C26.2589148 109.4281095 26.28676534 118.370295 26.23382568 127.3145752 C26.2238126 129.89211363 26.22733236 132.46974177 26.24468994 135.04724121 C26.26495931 138.56810564 26.23555501 142.08490898 26.19140625 145.60546875 C26.20763535 146.61559525 26.22386444 147.62572174 26.24058533 148.66645813 C26.07953813 155.23106064 26.07953813 155.23106064 23.44822693 157.80099487 C21.40162961 159.09784539 19.36337263 160.13878859 17.15625 161.1328125 C16.40851318 161.596875 15.66077637 162.0609375 14.89038086 162.5390625 C14.30651611 162.9 13.72265137 163.2609375 13.12109375 163.6328125 C12.12432617 164.2515625 12.12432617 164.2515625 11.10742188 164.8828125 C9.76215311 165.71789689 8.41579214 166.5512243 7.06835938 167.3828125 C3.71804286 169.46658565 0.46534712 171.6085099 -2.71484375 173.9453125 C-5.84375 176.1328125 -5.84375 176.1328125 -7.84375 176.1328125 C-9.25343873 173.31343503 -8.96972446 170.97070493 -8.97073364 167.81617737 C-8.97229363 167.16069426 -8.97385362 166.50521115 -8.97546089 165.82986492 C-8.97946446 163.62296357 -8.97628359 161.41613044 -8.97314453 159.20922852 C-8.97449897 157.63074198 -8.97627915 156.05225576 -8.97845459 154.47377014 C-8.98302714 150.17575856 -8.9812392 145.8777709 -8.9780755 141.57975888 C-8.975547 137.0792085 -8.97789119 132.5786602 -8.97946167 128.07810974 C-8.98128361 120.50950757 -8.97887817 112.94091514 -8.97412109 105.37231445 C-8.96869609 96.64061527 -8.97042816 87.90893951 -8.9759475 79.17724091 C-8.98049908 71.67475325 -8.98111866 64.17227261 -8.97850883 56.66978401 C-8.97695501 52.19200281 -8.97672731 47.71423258 -8.98004532 43.2364521 C-8.98295312 39.01677175 -8.98089529 34.79712123 -8.97515106 30.57744408 C-8.97383822 29.03562087 -8.97419223 27.49379512 -8.97641373 25.95197296 C-8.99946284 8.31599442 -8.99946284 8.31599442 -7.84375 1.1328125 C-5.93525052 -0.77568698 -2.52896226 0.00221617 0 0 Z " fill="#010102" transform="translate(51.84375,22.8671875)"/>
<path d="M0 0 C2.203125 2.2734375 2.203125 2.2734375 4.25 5.375 C5.02658803 6.48596376 5.80929651 7.59267096 6.59765625 8.6953125 C7.19344482 9.5311084 7.19344482 9.5311084 7.80126953 10.38378906 C17.95570059 24.07469203 34.16120325 32.69720075 50.77877808 35.58737183 C56.9057559 36.37221799 63.05450792 36.34095764 69.22265625 36.37890625 C70.6594705 36.39511992 72.09627409 36.41230382 73.5330658 36.43040466 C77.2787484 36.47566541 81.02444599 36.51070531 84.77026367 36.54260254 C90.7958725 36.59490706 96.82132664 36.6596016 102.84673882 36.73081779 C104.94623756 36.75361933 107.04571621 36.76989683 109.14527893 36.78553772 C111.04381874 36.80577248 111.04381874 36.80577248 112.98071289 36.82641602 C114.6563607 36.84068382 114.6563607 36.84068382 116.36585999 36.85523987 C119 37 119 37 121 38 C121 48.56 121 59.12 121 70 C116.74364495 72.12817752 114.86603116 72.23749917 110.20629883 72.19873047 C109.19299751 72.19417595 109.19299751 72.19417595 108.15922546 72.18952942 C105.92492536 72.17624942 103.69116031 72.14755444 101.45703125 72.1171875 C99.88921962 72.10114358 98.32140435 72.08545324 96.75358582 72.07009888 C93.45904501 72.03508856 90.16473151 71.99174883 86.87036133 71.94335938 C82.69755554 71.88327484 78.52502514 71.84957292 74.3518877 71.82330132 C71.10579777 71.79873258 67.860101 71.75643666 64.61426353 71.70956802 C63.07932694 71.69000728 61.54430122 71.67633746 60.00925636 71.66924667 C45.87835884 71.5905717 31.93949558 69.51255014 19 63.5 C18.2663623 63.16452148 17.53272461 62.82904297 16.77685547 62.48339844 C-4.95805006 52.08743379 -21.33680029 35.40613538 -32.3203125 14.12109375 C-33.14853275 11.53647539 -33.05465341 10.49097925 -32 8 C-29.93041992 6.91918945 -29.93041992 6.91918945 -27.23046875 6.11328125 C-26.25916016 5.81486328 -25.28785156 5.51644531 -24.28710938 5.20898438 C-22.75280273 4.76522461 -22.75280273 4.76522461 -21.1875 4.3125 C-19.6705957 3.85133789 -19.6705957 3.85133789 -18.12304688 3.38085938 C-4.82108723 -0.63698303 -4.82108723 -0.63698303 0 0 Z " fill="#010102" transform="translate(134,213)"/>
<path d="M0 0 C0.33 0 0.66 0 1 0 C2.25045313 7.71906016 2.12693075 15.42322563 2.09765625 23.21875 C2.09578817 24.68705192 2.09436611 26.15535446 2.09336853 27.62365723 C2.08957409 31.46392578 2.07977049 35.30415574 2.06866455 39.14440918 C2.05838392 43.07282998 2.05385674 47.00125709 2.04882812 50.9296875 C2.03814508 58.61980915 2.02110614 66.30989914 2 74 C2.66 74.33 3.32 74.66 4 75 C4.66 75.99 5.32 76.98 6 78 C6.825 77.814375 7.65 77.62875 8.5 77.4375 C11.83076538 77.02115433 14.55786024 77.3063444 17.85945511 77.75395095 C21.18057323 78.13570326 24.49580012 78.13453171 27.83349609 78.12025452 C28.57945447 78.12110894 29.32541285 78.12196337 30.09397602 78.12284368 C32.57048834 78.12447868 35.04693152 78.11900984 37.5234375 78.11352539 C39.30784605 78.11324306 41.09225472 78.11340214 42.87666321 78.1139679 C47.70455814 78.1142541 52.53242809 78.10838599 57.36031723 78.10139394 C62.41184105 78.09513092 67.46336548 78.09455427 72.51489258 78.09336853 C82.07340124 78.0902639 91.63189842 78.08206223 101.19040203 78.07201904 C112.07550586 78.06083092 122.96061024 78.05534065 133.84571838 78.05032361 C156.23048528 78.03987889 178.61524199 78.02229627 201 78 C201.33 78.99 201.66 79.98 202 81 C176.69605456 81.02335945 151.39211075 81.04099417 126.0881567 81.05181217 C114.33912228 81.05696864 102.59009457 81.06399902 90.84106445 81.07543945 C80.60072483 81.08540607 70.36039006 81.09185815 60.12004572 81.09408849 C54.69779616 81.09539223 49.27556047 81.09845684 43.85331535 81.10573006 C38.74888348 81.11252144 33.64447121 81.11461059 28.54003525 81.11310768 C26.6675703 81.1133826 24.7951047 81.11536922 22.92264366 81.11920547 C20.36331705 81.12419141 17.80406409 81.12298021 15.24473572 81.12025452 C14.50639069 81.12316736 13.76804566 81.1260802 13.00732654 81.12908131 C8.56011467 81.11630776 4.37402923 80.72172644 0 80 C-0.85516635 75.56163945 -1.12649379 71.36604458 -1.12939453 66.84887695 C-1.13114685 66.16031616 -1.13289917 65.47175537 -1.13470459 64.7623291 C-1.13907787 62.50428693 -1.13620213 60.24632411 -1.1328125 57.98828125 C-1.13348661 56.41220586 -1.13445753 54.83613058 -1.13571167 53.26005554 C-1.13718231 49.96592209 -1.13505361 46.67181583 -1.13037109 43.37768555 C-1.12466009 39.15419266 -1.12796547 34.93076312 -1.13394356 30.70727253 C-1.13755428 27.45681784 -1.13640847 24.20637822 -1.13381577 20.95592308 C-1.13314864 19.39818502 -1.13396743 17.84044559 -1.13629532 16.28270912 C-1.13883175 14.10941555 -1.13496788 11.93622532 -1.12939453 9.76293945 C-1.12859894 8.52639114 -1.12780334 7.28984283 -1.12698364 6.01582336 C-1 3 -1 3 0 0 Z " fill="#120F14" transform="translate(44,254)"/>
<path d="M0 0 C0.33 0 0.66 0 1 0 C1 19.14 1 38.28 1 58 C6.2907959 57.99476318 11.5815918 57.98952637 17.03271484 57.98413086 C34.47109974 57.96759575 51.90948493 57.95647825 69.3478756 57.94818783 C79.92560602 57.94302567 90.50332902 57.9359845 101.08105469 57.92456055 C110.29772179 57.91461126 119.51438353 57.90814599 128.73105586 57.90591151 C133.61379512 57.90460482 138.49651903 57.90152158 143.37925339 57.89426994 C147.97068535 57.88750589 152.56209556 57.88538383 157.15353203 57.88689232 C158.8426532 57.88661617 160.53177507 57.88461332 162.22089195 57.88079453 C164.5192265 57.87585128 166.81747791 57.87700407 169.11581421 57.87974548 C171.0488141 57.87836279 171.0488141 57.87836279 173.02086449 57.87695217 C176 58 176 58 178 59 C178 69.56 178 80.12 178 91 C175.81351633 86.62703266 175.76637929 83.4791784 175.875 78.75 C175.88402344 78.00492187 175.89304688 77.25984375 175.90234375 76.4921875 C175.92581642 74.66131941 175.96168475 72.83061762 176 71 C175.67 71 175.34 71 175 71 C175.33 67.37 175.66 63.74 176 60 C174.16031395 60.01879211 174.16031395 60.01879211 172.28346252 60.03796387 C157.96565636 60.18377127 143.64780888 60.32514958 129.32992935 60.46356201 C126.82636567 60.48777609 124.32280274 60.51206758 121.81924057 60.53643799 C69.24451304 61.04747314 69.24451304 61.04747314 48.453125 61.03125 C47.76540953 61.03074142 47.07769405 61.03023285 46.36913872 61.02970886 C39.77340795 61.02320767 33.17789704 61.00051532 26.58227539 60.96289062 C25.03627655 60.95654602 25.03627655 60.95654602 23.45904541 60.95007324 C21.62344793 60.94213744 19.78785939 60.93008099 17.95233154 60.91223145 C12.55744683 60.89011623 7.35330832 61.319577 2 62 C2 61.34 2 60.68 2 60 C1.01 60 0.02 60 -1 60 C-1.02538249 52.41944088 -1.04288059 44.83889274 -1.05493164 37.25830078 C-1.05995629 34.68017161 -1.06677708 32.10204529 -1.07543945 29.52392578 C-1.08758677 25.81542254 -1.09324706 22.10695703 -1.09765625 18.3984375 C-1.10281754 17.24822113 -1.10797882 16.09800476 -1.11329651 14.91293335 C-1.11337204 13.83226593 -1.11344757 12.75159851 -1.11352539 11.63818359 C-1.115746 10.69220306 -1.11796661 9.74622253 -1.12025452 8.77157593 C-0.99054911 5.78217972 -0.54720934 2.93930848 0 0 Z " fill="#18161B" transform="translate(77,242)"/>
<path d="M0 0 C1.02083333 0.875 2.04166667 1.75 3.0625 2.625 C3.71347656 3.17671875 4.36445313 3.7284375 5.03515625 4.296875 C6.21496535 5.31953259 7.37609429 6.36529263 8.49609375 7.453125 C20.20345124 18.52189935 36.74359643 24.01430781 52.61621094 24.18945312 C53.91065125 24.20617065 55.20509155 24.22288818 56.53875732 24.2401123 C57.22259239 24.24679428 57.90642746 24.25347626 58.6109848 24.26036072 C60.76280658 24.2815297 62.91448675 24.30853492 65.06622314 24.33703613 C70.4043666 24.40657683 75.74261036 24.46637368 81.08087158 24.52606201 C85.60466093 24.57696844 90.12836972 24.63175122 94.6520462 24.69187927 C96.77368284 24.71845945 98.89532715 24.73926141 101.01702881 24.7598877 C102.29886047 24.77660522 103.58069214 24.79332275 104.90136719 24.81054688 C106.03354675 24.82307495 107.16572632 24.83560303 108.33221436 24.84851074 C111 25 111 25 113 26 C113 36.56 113 47.12 113 58 C112.67 58 112.34 58 112 58 C112 47.77 112 37.54 112 27 C109.84509033 27.01047363 107.69018066 27.02094727 105.4699707 27.03173828 C98.34538654 27.06489695 91.22079895 27.08697726 84.09615803 27.10362434 C79.77703579 27.1140558 75.4579927 27.12820337 71.13891602 27.15087891 C66.96976634 27.17263001 62.80069275 27.18457343 58.63149071 27.18975449 C57.04190054 27.19344617 55.45231446 27.2006551 53.86275673 27.21146011 C51.63408069 27.22600526 49.40571792 27.22797669 47.17700195 27.22705078 C45.90903275 27.231492 44.64106354 27.23593323 43.33467102 27.24050903 C40.08443267 27.0060896 37.93081159 26.35403346 35 25 C32.47644616 24.44007434 29.94923873 24.00202579 27.40234375 23.5625 C24.98471249 22.99642049 23.12083486 22.28478192 21 21 C20.67 20.34 20.34 19.68 20 19 C17.98330173 17.86649466 17.98330173 17.86649466 16 17 C16 16.34 16 15.68 16 15 C15.236875 15.061875 14.47375 15.12375 13.6875 15.1875 C11 15 11 15 9.25 13.6875 C8 12 8 12 7 9 C6.195625 8.195625 5.39125 7.39125 4.5625 6.5625 C2.30060606 4.30060606 1.28914944 2.82413667 0 0 Z " fill="#1E1C22" transform="translate(142,225)"/>
<path d="M0 0 C-0.33 0.66 -0.66 1.32 -1 2 C-1.87820656 2.02426056 -1.87820656 2.02426056 -2.77415466 2.04901123 C-28.07985906 2.75960147 -53.36013416 3.49814569 -78.5625 6 C-79.85787186 6.12538147 -79.85787186 6.12538147 -81.17941284 6.2532959 C-83.60134682 6.49141106 -86.02149697 6.74218962 -88.44140625 7 C-89.49087936 7.10625702 -89.49087936 7.10625702 -90.56155396 7.21466064 C-94.3608526 7.64571891 -97.49835702 8.49719426 -101 10 C-103.67507711 10.39387638 -106.31416819 10.72478668 -109 11 C-110.29679687 11.165 -111.59359375 11.33 -112.9296875 11.5 C-120.27789091 12.43125746 -127.62284878 13.32612561 -135 14 C-130.28719187 11.42630041 -125.35247143 10.65773155 -120.125 9.625 C-119.02873291 9.40803467 -117.93246582 9.19106934 -116.80297852 8.9675293 C-95.40546605 4.86642701 -73.73088838 2.4261867 -52 1 C-51.15308594 0.94215332 -50.30617188 0.88430664 -49.43359375 0.82470703 C-32.97092214 -0.2605669 -16.48909788 -0.10414842 0 0 Z " fill="#26232A" transform="translate(261,157)"/>
<path d="M0 0 C2.34116215 3.51174323 2.24744775 4.90252377 2.24050903 9.05534363 C2.24325836 10.32159073 2.24600769 11.58783783 2.24884033 12.89245605 C2.24176203 14.29834079 2.23449241 15.70422457 2.22705078 17.11010742 C2.22648673 18.58836357 2.22680312 20.06662028 2.22793579 21.5448761 C2.22851053 25.5611482 2.21673673 29.57730128 2.20278788 33.59354568 C2.19030061 37.78959665 2.1891116 41.98565023 2.18673706 46.18171692 C2.18051639 54.12898644 2.16409765 62.07620106 2.14403808 70.02344638 C2.12169733 79.07049451 2.11069024 88.11754524 2.10064721 97.16461408 C2.07973192 115.77644054 2.04454455 134.38821586 2 153 C1.34 153 0.68 153 0 153 C-1.21903881 150.56192237 -1.12580093 149.00384201 -1.12698364 146.27835083 C-1.12980347 145.28112503 -1.13262329 144.28389923 -1.13552856 143.25645447 C-1.13350433 142.15749344 -1.1314801 141.05853241 -1.12939453 139.92626953 C-1.13114685 138.7712645 -1.13289917 137.61625946 -1.13470459 136.42625427 C-1.13913044 132.57842535 -1.13617758 128.73064196 -1.1328125 124.8828125 C-1.13303538 122.19505781 -1.13445627 119.50730394 -1.13571167 116.81954956 C-1.13753555 111.15834055 -1.13512814 105.49714454 -1.13037109 99.8359375 C-1.1249963 93.36649794 -1.12663988 86.89709023 -1.1321975 80.42765152 C-1.13680525 74.83316189 -1.13734056 69.2386816 -1.13475883 63.64419067 C-1.13322848 60.32225519 -1.13332256 57.00034586 -1.13629532 53.67840958 C-1.14878365 35.75945386 -0.76420445 17.90222429 0 0 Z " fill="#131214" transform="translate(44,46)"/>
<path d="M0 0 C-3.97751223 3.84035664 -8.15181833 5.24393822 -13.26953125 6.984375 C-16.7897031 8.29373792 -19.78022549 10.08183646 -23 12 C-23.66 12 -24.32 12 -25 12 C-25.33 12.99 -25.66 13.98 -26 15 C-26.99 15.66 -27.98 16.32 -29 17 C-29.66 16.67 -30.32 16.34 -31 16 C-31.2475 16.556875 -31.495 17.11375 -31.75 17.6875 C-34.40098688 22.59182574 -36.72859834 25.1478859 -42 27 C-42.33 27.66 -42.66 28.32 -43 29 C-43.99 29 -44.98 29 -46 29 C-46.33 29.66 -46.66 30.32 -47 31 C-47.66 31 -48.32 31 -49 31 C-49.3403125 31.928125 -49.3403125 31.928125 -49.6875 32.875 C-51.37929835 35.61410209 -52.99244161 36.05024472 -56 37 C-48.42064778 19.8021805 -23.20263008 8.22538207 -7.1484375 0.65234375 C-6.0644165 0.13982056 -6.0644165 0.13982056 -4.95849609 -0.38305664 C-3 -1 -3 -1 0 0 Z " fill="#262326" transform="translate(91,183)"/>
<path d="M0 0 C0.33 0.99 0.66 1.98 1 3 C0.34 3 -0.32 3 -1 3 C-1.26941406 3.54011719 -1.53882813 4.08023438 -1.81640625 4.63671875 C-2.6743134 6.34970168 -3.53690142 8.06034291 -4.40234375 9.76953125 C-5.95072775 12.83871989 -7.47893187 15.91719347 -9 19 C-9.33773438 19.66773438 -9.67546875 20.33546875 -10.0234375 21.0234375 C-12.20532906 25.62485238 -12.62794123 30.00147135 -13 35 C-13.16104087 36.81300851 -13.32767997 38.62552874 -13.5 40.4375 C-13.5721875 41.26121094 -13.644375 42.08492188 -13.71875 42.93359375 C-14 45 -14 45 -15 47 C-14.34 47 -13.68 47 -13 47 C-12.67 46.34 -12.34 45.68 -12 45 C-9.9375 43.875 -9.9375 43.875 -8 43 C-9.76429199 47.97209562 -12.3939166 52.43438061 -15 57 C-15.66 57 -16.32 57 -17 57 C-17.81269771 35.3666122 -14.67296762 16.76546039 0 0 Z " fill="#161419" transform="translate(34,220)"/>
<path d="M0 0 C1.28583984 0.69996094 1.28583984 0.69996094 2.59765625 1.4140625 C6.08724894 3.32947263 6.08724894 3.32947263 9.8515625 4.515625 C11.66015625 5.0390625 11.66015625 5.0390625 13.66015625 8.0390625 C15.85470306 8.61899949 15.85470306 8.61899949 18.28515625 8.7265625 C19.10242188 8.79230469 19.9196875 8.85804688 20.76171875 8.92578125 C21.38820312 8.96316406 22.0146875 9.00054687 22.66015625 9.0390625 C22.66015625 9.3690625 22.66015625 9.6990625 22.66015625 10.0390625 C25.63015625 10.5340625 25.63015625 10.5340625 28.66015625 11.0390625 C28.66015625 11.6990625 28.66015625 12.3590625 28.66015625 13.0390625 C30.64015625 12.7090625 32.62015625 12.3790625 34.66015625 12.0390625 C34.66015625 12.6990625 34.66015625 13.3590625 34.66015625 14.0390625 C37.63015625 14.0390625 40.60015625 14.0390625 43.66015625 14.0390625 C44.15515625 15.0290625 44.15515625 15.0290625 44.66015625 16.0390625 C31.33798864 17.07491139 18.91407084 13.33477545 6.84765625 8.0390625 C6.0889624 7.70712891 5.33026855 7.37519531 4.54858398 7.03320312 C0.56016007 5.19579367 -2.44074838 3.44797255 -5.33984375 0.0390625 C-2.33984375 -0.9609375 -2.33984375 -0.9609375 0 0 Z " fill="#17161A" transform="translate(145.33984375,267.9609375)"/>
<path d="M0 0 C0 0.99 0 1.98 0 3 C-1.63150293 4.37613725 -3.30440618 5.70365238 -5 7 C-9.85594797 12.23574278 -13.48398769 17.45996921 -16.1328125 24.08203125 C-17.29138196 26.64445289 -18.77852716 28.29687082 -21 30 C-21.66 30 -22.32 30 -23 30 C-23.4021875 31.3303125 -23.4021875 31.3303125 -23.8125 32.6875 C-24.91710819 35.76877548 -26.22849144 38.26221405 -28 41 C-28.33 40.34 -28.66 39.68 -29 39 C-27.77298029 36.25051112 -26.48749011 33.64524026 -25.0625 31 C-24.65080566 30.23051025 -24.23911133 29.46102051 -23.81494141 28.66821289 C-20.46388804 22.55463088 -16.64074274 17.21015903 -12 12 C-11.37996094 11.26136719 -10.75992188 10.52273437 -10.12109375 9.76171875 C-7.00508023 6.08038096 -3.92415866 2.85393357 0 0 Z " fill="#2A292F" transform="translate(128,98)"/>
<path d="M0 0 C1.02083333 0.875 2.04166667 1.75 3.0625 2.625 C3.71347656 3.17671875 4.36445313 3.7284375 5.03515625 4.296875 C6.21496535 5.31953259 7.37609429 6.36529263 8.49609375 7.453125 C12.43717953 11.17924246 16.80993785 13.70661865 21.5625 16.25 C22.19994141 16.59144043 22.83738281 16.93288086 23.49414062 17.28466797 C27.24537654 19.23705993 30.93633949 20.772762 35 22 C35 22.33 35 22.66 35 23 C33.54077307 22.88590407 32.08259402 22.75834456 30.625 22.625 C29.81289062 22.55539063 29.00078125 22.48578125 28.1640625 22.4140625 C26 22 26 22 24 20 C22.03511169 19.11221308 22.03511169 19.11221308 19.875 18.375 C19.15054688 18.11460937 18.42609375 17.85421875 17.6796875 17.5859375 C17.12539062 17.39257812 16.57109375 17.19921875 16 17 C16 16.34 16 15.68 16 15 C15.236875 15.061875 14.47375 15.12375 13.6875 15.1875 C11 15 11 15 9.25 13.6875 C8 12 8 12 7 9 C6.195625 8.195625 5.39125 7.39125 4.5625 6.5625 C2.30060606 4.30060606 1.28914944 2.82413667 0 0 Z " fill="#28272A" transform="translate(142,225)"/>
<path d="M0 0 C-0.33 0.66 -0.66 1.32 -1 2 C-5.60400882 2.14499601 -10.20809141 2.28727873 -14.81225586 2.42724609 C-16.37249919 2.47503646 -17.93272155 2.52351753 -19.49291992 2.57275391 C-28.99964813 2.87222654 -38.48750134 3.07540459 -48 3 C-48 2.67 -48 2.34 -48 2 C-32.07627665 -0.65001042 -16.08351131 -0.19816666 0 0 Z " fill="#1A191E" transform="translate(261,157)"/>
<path d="M0 0 C-3.34520258 1.93242285 -6.44767482 2.5463853 -10.25 3.125 C-11.32765625 3.29257813 -12.4053125 3.46015625 -13.515625 3.6328125 C-14.33546875 3.75398438 -15.1553125 3.87515625 -16 4 C-16 4.66 -16 5.32 -16 6 C-16.9075 6.061875 -17.815 6.12375 -18.75 6.1875 C-23.53229594 6.84846773 -27.7125793 8.87789251 -32.109375 10.7890625 C-35.37657349 12.15775376 -38.5691867 13.14229667 -42 14 C-39.29766744 10.71930844 -35.74255794 9.23103053 -31.9375 7.5625 C-30.89468872 7.10508423 -30.89468872 7.10508423 -29.83081055 6.63842773 C-20.75071241 2.83916864 -9.91960921 -0.4891326 0 0 Z " fill="#343237" transform="translate(186,74)"/>
<path d="M0 0 C0.66 0.33 1.32 0.66 2 1 C1.38125 1.598125 0.7625 2.19625 0.125 2.8125 C-2.13676954 5.00811144 -2.13676954 5.00811144 -4 8 C-5.65816784 8.68753301 -7.32459336 9.35561283 -9 10 C-9.33 10.66 -9.66 11.32 -10 12 C-10.99 12 -11.98 12 -13 12 C-13.33 12.66 -13.66 13.32 -14 14 C-14.66 14 -15.32 14 -16 14 C-16.226875 14.61875 -16.45375 15.2375 -16.6875 15.875 C-18.37929835 18.61410209 -19.99244161 19.05024472 -23 20 C-21.48247209 16.47255481 -19.41787222 14.05750458 -16.75 11.3125 C-15.62851562 10.13107422 -15.62851562 10.13107422 -14.484375 8.92578125 C-11.60755979 6.69579713 -9.58527699 6.30568113 -6 6 C-6 5.34 -6 4.68 -6 4 C-4.68 3.67 -3.36 3.34 -2 3 C-2 2.34 -2 1.68 -2 1 C-1.34 0.67 -0.68 0.34 0 0 Z " fill="#0C080D" transform="translate(58,200)"/>
<path d="M0 0 C0.33 0 0.66 0 1 0 C1.8810264 4.60892817 2.20319865 9.12487153 2.31640625 13.8046875 C2.33718735 14.5286673 2.35796844 15.25264709 2.37937927 15.99856567 C2.44428853 18.29062239 2.50348437 20.58278474 2.5625 22.875 C2.60574112 24.43751053 2.64935711 26.00001072 2.69335938 27.5625 C2.79990896 31.37489426 2.90133795 35.1873938 3 39 C2.34 39 1.68 39 1 39 C-0.61301773 35.77396455 -0.12053599 32.25289962 -0.09765625 28.7109375 C-0.0962413 27.89251373 -0.09482635 27.07408997 -0.09336853 26.23086548 C-0.0877629 23.61220675 -0.07520948 20.99363296 -0.0625 18.375 C-0.05748572 16.60156373 -0.05292269 14.82812613 -0.04882812 13.0546875 C-0.03779164 8.70309218 -0.02052325 4.3515605 0 0 Z " fill="#211F26" transform="translate(43,160)"/>
<path d="M0 0 C0.55300781 0.22171875 1.10601562 0.4434375 1.67578125 0.671875 C1.02351563 1.11917969 0.37125 1.56648438 -0.30078125 2.02734375 C-7.97979011 7.33922451 -14.32870707 12.33137024 -19.90625 19.87890625 C-20.37417969 20.47058594 -20.84210938 21.06226563 -21.32421875 21.671875 C-21.65421875 21.671875 -21.98421875 21.671875 -22.32421875 21.671875 C-22.32421875 19.691875 -22.32421875 17.711875 -22.32421875 15.671875 C-21.00421875 15.341875 -19.68421875 15.011875 -18.32421875 14.671875 C-18.32421875 13.681875 -18.32421875 12.691875 -18.32421875 11.671875 C-16.66889252 10.65321271 -15.00161737 9.65376687 -13.32421875 8.671875 C-12.99421875 7.681875 -12.66421875 6.691875 -12.32421875 5.671875 C-10.1796875 4.03125 -10.1796875 4.03125 -7.51171875 2.421875 C-6.63902344 1.88046875 -5.76632813 1.3390625 -4.8671875 0.78125 C-2.32421875 -0.328125 -2.32421875 -0.328125 0 0 Z " fill="#232326" transform="translate(160.32421875,116.328125)"/>
<path d="M0 0 C8.48867562 3.12648752 8.48867562 3.12648752 10.5 6.5625 C10.665 7.366875 10.83 8.17125 11 9 C11.33 9.99 11.66 10.98 12 12 C12.99 12 13.98 12 15 12 C15 12.66 15 13.32 15 14 C15.99 14 16.98 14 18 14 C18 14.99 18 15.98 18 17 C18.78375 17.309375 19.5675 17.61875 20.375 17.9375 C23 19 23 19 25 20 C25 20.66 25 21.32 25 22 C15.13592847 18.50829326 6.76665271 9.74565779 0 2 C0 1.34 0 0.68 0 0 Z " fill="#1A181C" transform="translate(115,246)"/>
<path d="M0 0 C-2.90758886 1.93839257 -5.48410434 3.0624742 -8.734375 4.3125 C-9.86617187 4.74820313 -10.99796875 5.18390625 -12.1640625 5.6328125 C-13.34742187 6.08398438 -14.53078125 6.53515625 -15.75 7 C-16.91789062 7.45117188 -18.08578125 7.90234375 -19.2890625 8.3671875 C-24.81088805 10.48326124 -30.27048698 12.52573934 -36 14 C-30.50214004 7.51831247 -19.8577434 4.75710295 -12 2 C-10.453125 1.4121875 -10.453125 1.4121875 -8.875 0.8125 C-5.79033638 -0.05925276 -3.18943797 -0.151878 0 0 Z " fill="#28272C" transform="translate(114,209)"/>
<path d="M0 0 C0.33 0.66 0.66 1.32 1 2 C0.14453125 3.99609375 0.14453125 3.99609375 -1.1875 6.4375 C-3.21088359 10.23065507 -4.56983693 13.80967382 -5.75 17.9375 C-6.82135066 21.04178246 -7.34999673 22.57027561 -10.109375 24.39453125 C-14.10160105 25.82312194 -16.91261881 26.30053038 -21 25 C-20.01 25 -19.02 25 -18 25 C-18 24.34 -18 23.68 -18 23 C-15.03 22.67 -12.06 22.34 -9 22 C-8.74476562 20.58847656 -8.74476562 20.58847656 -8.484375 19.1484375 C-6.93740217 11.19963028 -5.77327905 5.77327905 0 0 Z " fill="#201D23" transform="translate(136,139)"/>
<path d="M0 0 C0.33 0 0.66 0 1 0 C1 10.56 1 21.12 1 32 C-0.32 31.67 -1.64 31.34 -3 31 C-2.505 29.515 -2.505 29.515 -2 28 C-1.86172229 26.03257184 -1.77504799 24.06132157 -1.71875 22.08984375 C-1.68136719 20.93548828 -1.64398438 19.78113281 -1.60546875 18.59179688 C-1.5350436 16.15169596 -1.46473146 13.71159177 -1.39453125 11.27148438 C-1.35714844 10.11841797 -1.31976563 8.96535156 -1.28125 7.77734375 C-1.25095703 6.71765381 -1.22066406 5.65796387 -1.18945312 4.56616211 C-1 2 -1 2 0 0 Z " fill="#0E0C11" transform="translate(253,252)"/>
<path d="M0 0 C0.33 0.99 0.66 1.98 1 3 C0.34 3 -0.32 3 -1 3 C-1.26941406 3.54011719 -1.53882813 4.08023438 -1.81640625 4.63671875 C-2.6743134 6.34970168 -3.53690142 8.06034291 -4.40234375 9.76953125 C-8.5804272 18.05127936 -12.17351361 26.15971277 -15 35 C-16.99861913 29.41175573 -14.12249756 24.21856239 -12 19 C-8.70858499 12.09814393 -5.26714895 5.5863701 0 0 Z " fill="#28252A" transform="translate(34,220)"/>
<path d="M0 0 C1.10425806 3.29054081 0.877652 5.02361637 -0.3125 8.25 C-2.62823971 15.32469103 -3.22284034 22.63069782 -4 30 C-2.35 30 -0.7 30 1 30 C-2 32 -2 32 -6 32 C-6.28173611 24.94214913 -5.30365172 18.88800662 -3.5625 12.0625 C-3.33240234 11.11826172 -3.10230469 10.17402344 -2.86523438 9.20117188 C-1.17160979 2.34321959 -1.17160979 2.34321959 0 0 Z " fill="#302E32" transform="translate(98,140)"/>
<path d="M0 0 C-4.3217104 2.88114027 -8.91199189 3.55748504 -13.9375 4.6875 C-15.44086914 5.04424805 -15.44086914 5.04424805 -16.97460938 5.40820312 C-17.94076172 5.62798828 -18.90691406 5.84777344 -19.90234375 6.07421875 C-20.78398193 6.27619873 -21.66562012 6.47817871 -22.57397461 6.6862793 C-25.0547156 7.00707553 -26.645357 6.7812341 -29 6 C-24.08253392 3.20428325 -20.74669936 1.76544084 -15 2 C-13.49293518 1.70022219 -11.99288512 1.36387517 -10.5 1 C-6.92170429 0.14024029 -3.69910189 -0.18969753 0 0 Z " fill="#2A2931" transform="translate(149,200)"/>
<path d="M0 0 C0.66 0.33 1.32 0.66 2 1 C1.23816406 1.67804688 0.47632812 2.35609375 -0.30859375 3.0546875 C-6.97548817 9.04471236 -13.15244489 15.19261892 -19 22 C-19 18.80366562 -18.66189865 17.65903784 -17 15 C-16.319375 14.505 -15.63875 14.01 -14.9375 13.5 C-12.6834192 11.75490519 -12.38148486 10.76576527 -12 8 C-11.13375 7.9071875 -11.13375 7.9071875 -10.25 7.8125 C-7.12419715 6.68373786 -6.01847182 4.58616702 -4 2 C-1.875 0.625 -1.875 0.625 0 0 Z " fill="#1E1A22" transform="translate(46,241)"/>
<path d="M0 0 C-0.33 0.99 -0.66 1.98 -1 3 C-3.03125 3.6953125 -3.03125 3.6953125 -5.5 4.125 C-8.53930366 4.47887416 -8.53930366 4.47887416 -11 6 C-12.51928038 6.07179964 -14.04167482 6.08392007 -15.5625 6.0625 C-16.38878906 6.05347656 -17.21507813 6.04445312 -18.06640625 6.03515625 C-18.70449219 6.02355469 -19.34257813 6.01195312 -20 6 C-16.67817543 3.78545028 -13.83578665 2.95381499 -10 1.875 C-8.7625 1.52179688 -7.525 1.16859375 -6.25 0.8046875 C-3 0 -3 0 0 0 Z " fill="#1D1A1E" transform="translate(125,171)"/>
<path d="M0 0 C2 1.8125 2 1.8125 4 4 C4 4.99 4 5.98 4 7 C4.66 7 5.32 7 6 7 C6.268125 8.134375 6.53625 9.26875 6.8125 10.4375 C7.4003125 12.2009375 7.4003125 12.2009375 8 14 C8.99 14.33 9.98 14.66 11 15 C11.99 16.485 11.99 16.485 13 18 C12.67 18.99 12.34 19.98 12 21 C0 6.37175793 0 6.37175793 0 0 Z " fill="#1D1B1E" transform="translate(102,225)"/>
<path d="M0 0 C-4.48536253 4.33069486 -10.02181831 6.49157335 -16 8 C-16.99 7.67 -17.98 7.34 -19 7 C-16.40163864 5.63354299 -13.79734444 4.28169331 -11.1875 2.9375 C-10.44951172 2.54755859 -9.71152344 2.15761719 -8.95117188 1.75585938 C-8.23896484 1.39169922 -7.52675781 1.02753906 -6.79296875 0.65234375 C-6.1383667 0.31195068 -5.48376465 -0.02844238 -4.80932617 -0.37915039 C-3 -1 -3 -1 0 0 Z " fill="#2E292E" transform="translate(91,183)"/>
<path d="M0 0 C-8.75 7 -8.75 7 -13 7 C-10.30332745 0.48304134 -6.81821784 -0.39335872 0 0 Z " fill="#201E22" transform="translate(74,225)"/>
<path d="M0 0 C-1.1858237 3.37503669 -2.27573689 5.64722731 -5 8 C-5 6.68 -5 5.36 -5 4 C-5.99 4 -6.98 4 -8 4 C-7 1 -7 1 -5.125 -0.25 C-3 -1 -3 -1 0 0 Z " fill="#0D0B0E" transform="translate(264,88)"/>
<path d="M0 0 C0 3 0 3 -1.375 4.4375 C-1.91125 4.953125 -2.4475 5.46875 -3 6 C-3.28875 6.680625 -3.5775 7.36125 -3.875 8.0625 C-5.41329016 10.71177751 -7.15111923 11.10035344 -10 12 C-8.52278578 8.54798361 -6.56205999 6.35038064 -3.875 3.75 C-3.15054688 3.04359375 -2.42609375 2.3371875 -1.6796875 1.609375 C-1.12539063 1.07828125 -0.57109375 0.5471875 0 0 Z " fill="#262429" transform="translate(45,208)"/>
<path d="M0 0 C-1.32 1.32 -2.64 2.64 -4 4 C-4 3.34 -4 2.68 -4 2 C-5.31471568 2.28151087 -6.62675767 2.57553339 -7.9375 2.875 C-9.03384766 3.11863281 -9.03384766 3.11863281 -10.15234375 3.3671875 C-12.20700294 3.82961523 -12.20700294 3.82961523 -13 6 C-12.7734375 4.11328125 -12.7734375 4.11328125 -12 2 C-10.0390625 0.91796875 -10.0390625 0.91796875 -7.625 0.1875 C-6.83351563 -0.06644531 -6.04203125 -0.32039062 -5.2265625 -0.58203125 C-3 -1 -3 -1 0 0 Z " fill="#1A181B" transform="translate(114,219)"/>
<path d="M0 0 C0 0.66 0 1.32 0 2 C-0.99 2 -1.98 2 -3 2 C-3 2.66 -3 3.32 -3 4 C-6.3 4.33 -9.6 4.66 -13 5 C-10.79970166 2.79970166 -9.4218744 2.31417391 -6.5 1.375 C-5.30890625 0.98441406 -5.30890625 0.98441406 -4.09375 0.5859375 C-2 0 -2 0 0 0 Z " fill="#2A282A" transform="translate(104,177)"/>
<path d="M0 0 C0.62003906 0.18820313 1.24007812 0.37640625 1.87890625 0.5703125 C0.28098523 1.74551896 -1.32466283 2.91022497 -2.93359375 4.0703125 C-4.27357422 5.04484375 -4.27357422 5.04484375 -5.640625 6.0390625 C-8.12109375 7.5703125 -8.12109375 7.5703125 -11.12109375 7.5703125 C-3.13705982 -0.63550015 -3.13705982 -0.63550015 0 0 Z " fill="#242327" transform="translate(160.12109375,116.4296875)"/>
<path d="M0 0 C0.66 0.33 1.32 0.66 2 1 C1.01 1.33 0.02 1.66 -1 2 C-2.21869929 4.50447516 -2.21869929 4.50447516 -3 7 C-4.98 7 -6.96 7 -9 7 C-6.25604436 4.05278838 -3.61662784 1.80831392 0 0 Z " fill="#1D191C" transform="translate(64,239)"/>
<path d="M0 0 C-4.455 2.97 -4.455 2.97 -9 6 C-10 4 -10 4 -9.4375 1.9375 C-8 0 -8 0 -5 -0.8125 C-2 -1 -2 -1 0 0 Z " fill="#1E1A1F" transform="translate(58,235)"/>
<path d="M0 0 C4.13621084 3.3810038 7.81316569 6.66590534 11 11 C5.74189816 8.85781036 2.35267403 5.07227888 0 0 Z " fill="#323134" transform="translate(142,225)"/>
<path d="M0 0 C0.66 0 1.32 0 2 0 C1.46884894 4.51478398 -0.36620292 7.34666857 -3 11 C-3.66 10.01 -4.32 9.02 -5 8 C-4.360625 7.236875 -3.72125 6.47375 -3.0625 5.6875 C-0.85767219 3.11753287 -0.85767219 3.11753287 0 0 Z " fill="#111015" transform="translate(258,158)"/>
<path d="M0 0 C1.32 0.33 2.64 0.66 4 1 C-0.455 3.97 -0.455 3.97 -5 7 C-5.66 6.67 -6.32 6.34 -7 6 C-5.62209707 3.24419414 -3.62850007 2.51138754 -1 1 C-0.67 0.67 -0.34 0.34 0 0 Z " fill="#1A181C" transform="translate(58,187)"/>
<path d="M0 0 C0.33 0 0.66 0 1 0 C1.33 4.62 1.66 9.24 2 14 C1.34 14 0.68 14 0 14 C-1.41778293 11.16443413 -0.86257622 9.0091294 -0.5625 5.875 C-0.46066406 4.77929688 -0.35882813 3.68359375 -0.25390625 2.5546875 C-0.17011719 1.71164063 -0.08632813 0.86859375 0 0 Z " fill="#17141B" transform="translate(44,185)"/>
<path d="M0 0 C0.66 0.33 1.32 0.66 2 1 C0.90653119 2.34212062 -0.2001575 3.67347975 -1.3125 5 C-2.23482422 6.11375 -2.23482422 6.11375 -3.17578125 7.25 C-5 9 -5 9 -8 9 C-8 8.34 -8 7.68 -8 7 C-7.195625 6.525625 -6.39125 6.05125 -5.5625 5.5625 C-2.7081924 4.20016328 -2.7081924 4.20016328 -2 1 C-1.34 0.67 -0.68 0.34 0 0 Z " fill="#1A191C" transform="translate(150,121)"/>
<path d="M0 0 C0 3.08401374 -0.34209098 4.03663956 -1.8125 6.625 C-2.14894531 7.23601562 -2.48539062 7.84703125 -2.83203125 8.4765625 C-4 10 -4 10 -7 11 C-5.5140084 6.40693504 -3.14985318 3.56430755 0 0 Z " fill="#0A090D" transform="translate(120,108)"/>
<path d="M0 0 C-1.4562545 0.67119549 -2.91507867 1.33681807 -4.375 2 C-5.59316406 2.556875 -5.59316406 2.556875 -6.8359375 3.125 C-9 4 -9 4 -11 4 C-10.67 2.68 -10.34 1.36 -10 0 C-6.26432828 -0.76411467 -3.65188082 -1.07174763 0 0 Z " fill="#201E24" transform="translate(173,112)"/>
<path d="M0 0 C0 0.66 0 1.32 0 2 C-0.99 2 -1.98 2 -3 2 C-3 2.66 -3 3.32 -3 4 C-4.98 4.33 -6.96 4.66 -9 5 C-8.00233891 2.50584728 -7.31383315 1.21259665 -5.0625 -0.3125 C-3 -1 -3 -1 0 0 Z " fill="#100F14" transform="translate(118,162)"/>
<path d="M0 0 C1.44096586 0.42594588 2.87768712 0.86626633 4.3125 1.3125 C5.11300781 1.55613281 5.91351563 1.79976563 6.73828125 2.05078125 C9.09964573 3.04182023 10.33879993 4.08074943 12 6 C7.24518354 5.42365861 4.02951788 3.44931479 0 1 C0 0.67 0 0.34 0 0 Z " fill="#28272B" transform="translate(143,270)"/>
<path d="M0 0 C0 0.66 0 1.32 0 2 C-0.66 2 -1.32 2 -2 2 C-2 2.66 -2 3.32 -2 4 C-4.64 4.33 -7.28 4.66 -10 5 C-4.03225806 0 -4.03225806 0 0 0 Z " fill="#1A181C" transform="translate(130,202)"/>
<path d="M0 0 C6.4 -0.49230769 6.4 -0.49230769 9.4375 2 C10.2109375 2.99 10.2109375 2.99 11 4 C7.0507432 3.44894091 3.65079826 2.61064629 0 1 C0 0.67 0 0.34 0 0 Z " fill="#232226" transform="translate(155,276)"/>
<path d="M0 0 C0.66 0 1.32 0 2 0 C0.66666667 2.66666667 -0.66666667 5.33333333 -2 8 C-2.66 7.67 -3.32 7.34 -4 7 C-2.92598892 4.08482708 -2.22189824 2.22189824 0 0 Z " fill="#0E0D0F" transform="translate(62,226)"/>
<path d="M0 0 C0.66 0.33 1.32 0.66 2 1 C0.38731308 3.71224618 -1.24901874 6.37352812 -3 9 C-3.66 9 -4.32 9 -5 9 C-3.7508258 5.54074837 -2.32472205 2.85306797 0 0 Z " fill="#09060B" transform="translate(32,225)"/>
<path d="M0 0 C0.33 0.66 0.66 1.32 1 2 C0.22265625 3.9453125 0.22265625 3.9453125 -0.9375 6.125 C-1.31777344 6.84945312 -1.69804687 7.57390625 -2.08984375 8.3203125 C-2.39019531 8.87460938 -2.69054687 9.42890625 -3 10 C-3.33 10 -3.66 10 -4 10 C-4.25 7.25 -4.25 7.25 -4 4 C-2 1.625 -2 1.625 0 0 Z " fill="#26252A" transform="translate(136,139)"/>
<path d="M0 0 C0.33 0.66 0.66 1.32 1 2 C-0.3125 4.625 -0.3125 4.625 -2 7 C-2.66 7 -3.32 7 -4 7 C-4.33 6.01 -4.66 5.02 -5 4 C-3 2 -3 2 0 0 Z " fill="#19131A" transform="translate(25,263)"/>
<path d="M0 0 C1.98 0.66 3.96 1.32 6 2 C6 2.99 6 3.98 6 5 C4.125 4.75 4.125 4.75 2 4 C0.75 1.9375 0.75 1.9375 0 0 Z " fill="#151418" transform="translate(150,235)"/>
<path d="M0 0 C0 0.66 0 1.32 0 2 C-1.6396875 2.2165625 -1.6396875 2.2165625 -3.3125 2.4375 C-6.93122987 2.88288104 -6.93122987 2.88288104 -10 4 C-10 3.01 -10 2.02 -10 1 C-6.52674819 -0.1577506 -3.63932552 -0.06866652 0 0 Z " fill="#1D1A1E" transform="translate(170,78)"/>
</svg>
