<?xml version="1.0" encoding="UTF-8"?>
<svg version="1.1" xmlns="http://www.w3.org/2000/svg" width="289" height="359">
<path d="M0 0 C1.27536539 6.84460804 1.12622488 13.64638381 1.09765625 20.58984375 C1.0962413 21.88950577 1.09482635 23.18916779 1.09336853 24.5282135 C1.08957334 27.96243253 1.07976908 31.39660842 1.06866455 34.83081055 C1.05838555 38.34358131 1.05385708 41.85635912 1.04882812 45.36914062 C1.03814376 52.24611133 1.02110388 59.12305359 1 66 C1.90005957 65.99907821 2.80011913 65.99815641 3.72745323 65.99720669 C25.60092507 65.97514799 47.47439499 65.95858675 69.3478756 65.94818783 C79.92560602 65.94302567 90.50332902 65.9359845 101.08105469 65.92456055 C110.29772179 65.91461126 119.51438353 65.90814599 128.73105586 65.90591151 C133.61379512 65.90460482 138.49651903 65.90152158 143.37925339 65.89426994 C147.97068535 65.88750589 152.56209556 65.88538383 157.15353203 65.88689232 C158.8426532 65.88661617 160.53177507 65.88461332 162.22089195 65.88079453 C164.5192265 65.87585128 166.81747791 65.87700407 169.11581421 65.87974548 C171.0488141 65.87836279 171.0488141 65.87836279 173.02086449 65.87695217 C176 66 176 66 178 67 C178 77.56 178 88.12 178 99 C173.22380402 100.91047839 169.87306798 101.28118099 164.89102173 101.24723816 C164.07906165 101.24965257 163.26710156 101.25206699 162.43053663 101.25455457 C159.71223534 101.2601862 156.99416961 101.25153239 154.27587891 101.24291992 C152.32593217 101.24399296 150.37598575 101.24593195 148.42604065 101.24867249 C143.13054959 101.25352121 137.83514276 101.24586417 132.53966188 101.23571944 C126.99758277 101.2269362 121.45550628 101.22869646 115.91342163 101.2290802 C106.60405061 101.22814348 97.29471217 101.21945943 87.98535156 101.20581055 C77.22618496 101.1900942 66.46705406 101.18481214 55.7078768 101.1855461 C44.25181388 101.18622204 32.79576471 101.17927686 21.33970594 101.1700995 C18.04022768 101.1679695 14.74075163 101.16725849 11.44127274 101.16686058 C6.25222661 101.16585468 1.06321037 101.15973776 -4.12582588 101.14969444 C-6.02893071 101.14677799 -7.93203898 101.14554234 -9.83514595 101.14612198 C-12.4358137 101.14661425 -15.03639831 101.14094142 -17.63705444 101.13371277 C-18.76280178 101.13603567 -18.76280178 101.13603567 -19.91129148 101.1384055 C-24.38440138 101.1179193 -28.6003323 100.72651532 -33 100 C-33.84804782 95.5773308 -34.13620801 91.38117886 -34.16113281 86.88061523 C-34.16609772 86.19526703 -34.17106262 85.50991882 -34.17617798 84.80380249 C-34.19068539 82.5553891 -34.19757995 80.30704609 -34.203125 78.05859375 C-34.20595238 77.28702501 -34.20877975 76.51545628 -34.21169281 75.72050667 C-34.22663392 71.64285062 -34.23589726 67.56522952 -34.24023438 63.48754883 C-34.24573253 59.2820701 -34.26980302 55.07691293 -34.29820633 50.8715353 C-34.31684076 47.62957318 -34.32203858 44.38768872 -34.32357025 41.14567757 C-34.32659207 39.59515678 -34.33460471 38.0446372 -34.34775543 36.49416924 C-34.36484439 34.32585989 -34.36293001 32.15833992 -34.35644531 29.98999023 C-34.36191376 28.14182961 -34.36191376 28.14182961 -34.36749268 26.2563324 C-33.86118668 21.76998283 -32.22361175 19.20403396 -29.046875 16.078125 C-8.84615385 0 -8.84615385 0 0 0 Z " fill="#FDFEFD" transform="translate(77,234)"/>
<path d="M0 0 C-1.17094671 3.81035896 -2.4564066 7.07217771 -4.609375 10.42578125 C-5.11726562 11.22306641 -5.62515625 12.02035156 -6.1484375 12.84179688 C-6.67695313 13.65712891 -7.20546875 14.47246094 -7.75 15.3125 C-8.26304687 16.11623047 -8.77609375 16.91996094 -9.3046875 17.74804688 C-10.34032732 19.3652583 -11.38789219 20.97489534 -12.44726562 22.57666016 C-13.49246864 24.20789996 -14.48074363 25.87687504 -15.41210938 27.57568359 C-18.84864147 33.56354451 -18.84864147 33.56354451 -22.03515625 34.77148438 C-24.39523832 35.0587448 -26.6245766 35.07526382 -29 35 C-30.53670627 35.05168442 -32.07318916 35.11043219 -33.609375 35.17578125 C-34.83527344 35.2070813 -34.83527344 35.2070813 -36.0859375 35.23901367 C-64.36235378 36.01899913 -92.40847803 39.89053183 -120 46 C-121.07523926 46.23444824 -122.15047852 46.46889648 -123.25830078 46.71044922 C-159.84114292 54.82152531 -196.39798713 69.057902 -224 95 C-224.93972656 95.82564453 -224.93972656 95.82564453 -225.8984375 96.66796875 C-232.3343811 102.56515689 -236.41032762 110.33607547 -240.609375 117.8984375 C-241.06828125 118.59195313 -241.5271875 119.28546875 -242 120 C-242.66 120 -243.32 120 -244 120 C-244.92368268 95.41227759 -239.81154247 76.45680018 -223 58 C-222.39929688 57.31808594 -221.79859375 56.63617188 -221.1796875 55.93359375 C-180.43681063 12.28051139 -108.0368263 5.08721228 -52 1 C-51.01531738 0.92797363 -50.03063477 0.85594727 -49.01611328 0.78173828 C-32.70512409 -0.34346628 -16.33984205 -0.10320569 0 0 Z " fill="#FCFDFC" transform="translate(261,157)"/>
<path d="M0 0 C1.68535825 0.00186993 3.37071706 0.00329111 5.05607605 0.00428772 C9.4470068 0.00806768 13.83790336 0.01785819 18.2288208 0.0289917 C22.72741229 0.03930418 27.22600942 0.04380621 31.72460938 0.04882812 C40.51824468 0.05948549 49.31185244 0.07650611 58.10546875 0.09765625 C59.23052979 4.79013062 59.23052979 4.79013062 58.10498047 7.55786133 C57.32791748 8.82472778 57.32791748 8.82472778 56.53515625 10.1171875 C55.96796875 11.05755859 55.40078125 11.99792969 54.81640625 12.96679688 C54.21054687 13.93810547 53.6046875 14.90941406 52.98046875 15.91015625 C52.3978125 16.86986328 51.81515625 17.82957031 51.21484375 18.81835938 C49.52804226 21.58872282 47.82215582 24.34572055 46.10546875 27.09765625 C45.7042556 28.13135849 45.7042556 28.13135849 45.29493713 29.1859436 C44.15230883 31.72496475 43.21433638 33.26048416 41.10546875 35.09765625 C36.27343656 36.26285878 31.46048524 36.07130383 26.5234375 35.95703125 C25.06675892 35.95438826 23.61006765 35.95586364 22.15339661 35.96124268 C18.31355884 35.96702001 14.47556303 35.92863304 10.6361084 35.87738037 C4.5324917 35.79995236 -1.57093774 35.77594578 -7.67499352 35.77747345 C-9.78232223 35.7697839 -11.88785795 35.73513684 -13.99482727 35.69720459 C-33.91578122 35.50600517 -51.52100898 42.0299536 -65.89453125 56.09765625 C-72.30442364 63.48600573 -77.98108886 71.59366821 -80.765625 81.05859375 C-81.20068359 82.53199219 -81.20068359 82.53199219 -81.64453125 84.03515625 C-81.86625 84.93105469 -82.08796875 85.82695312 -82.31640625 86.75 C-84.86763254 90.54526486 -88.62590931 90.95270432 -92.89453125 92.09765625 C-94.56542543 92.6158884 -96.23469905 93.13937336 -97.90234375 93.66796875 C-99.60763094 94.18765045 -101.31336379 94.70587189 -103.01953125 95.22265625 C-103.87417969 95.48691406 -104.72882813 95.75117188 -105.609375 96.0234375 C-110.37744666 97.46631018 -114.94153196 98.547323 -119.89453125 99.09765625 C-120.62862187 76.34084711 -110.68627616 55.60427439 -96.89453125 38.09765625 C-96.2603125 37.27910156 -95.62609375 36.46054688 -94.97265625 35.6171875 C-78.90791155 16.22278418 -53.09794878 3.42784156 -28.30490112 0.82588196 C-18.85593866 0.02104009 -9.47369078 -0.03128182 0 0 Z " fill="#FCFCFB" transform="translate(211.89453125,72.90234375)"/>
<path d="M0 0 C0.68429077 -0.00095673 1.36858154 -0.00191345 2.0736084 -0.00289917 C3.52286877 -0.0035808 4.97213218 -0.00172773 6.42138672 0.00244141 C8.64687928 0.00778998 10.87217001 0.0024959 13.09765625 -0.00390625 C14.50260461 -0.00324547 15.90755285 -0.0019643 17.3125 0 C18.59962891 0.00112793 19.88675781 0.00225586 21.21289062 0.00341797 C24.15625 0.1328125 24.15625 0.1328125 25.15625 1.1328125 C25.28702972 3.73209877 25.35301687 6.3061378 25.37744141 8.90722656 C25.38889915 9.7273545 25.40035688 10.54748243 25.41216183 11.39246273 C25.44908101 14.14441517 25.47858643 16.89639332 25.5078125 19.6484375 C25.53171679 21.59011655 25.55588668 23.53179234 25.58030701 25.47346497 C25.85056906 47.7296244 26.01246651 69.98693576 26.13889313 92.2443161 C26.15539712 94.99087869 26.17439299 97.73740957 26.19451904 100.48394775 C26.2589148 109.4281095 26.28676534 118.370295 26.23382568 127.3145752 C26.2238126 129.89211363 26.22733236 132.46974177 26.24468994 135.04724121 C26.26495931 138.56810564 26.23555501 142.08490898 26.19140625 145.60546875 C26.20763535 146.61559525 26.22386444 147.62572174 26.24058533 148.66645813 C26.07953813 155.23106064 26.07953813 155.23106064 23.44822693 157.80099487 C21.40162961 159.09784539 19.36337263 160.13878859 17.15625 161.1328125 C16.40851318 161.596875 15.66077637 162.0609375 14.89038086 162.5390625 C14.30651611 162.9 13.72265137 163.2609375 13.12109375 163.6328125 C12.12432617 164.2515625 12.12432617 164.2515625 11.10742188 164.8828125 C9.76215311 165.71789689 8.41579214 166.5512243 7.06835938 167.3828125 C3.71804286 169.46658565 0.46534712 171.6085099 -2.71484375 173.9453125 C-5.84375 176.1328125 -5.84375 176.1328125 -7.84375 176.1328125 C-9.25343873 173.31343503 -8.96972446 170.97070493 -8.97073364 167.81617737 C-8.97229363 167.16069426 -8.97385362 166.50521115 -8.97546089 165.82986492 C-8.97946446 163.62296357 -8.97628359 161.41613044 -8.97314453 159.20922852 C-8.97449897 157.63074198 -8.97627915 156.05225576 -8.97845459 154.47377014 C-8.98302714 150.17575856 -8.9812392 145.8777709 -8.9780755 141.57975888 C-8.975547 137.0792085 -8.97789119 132.5786602 -8.97946167 128.07810974 C-8.98128361 120.50950757 -8.97887817 112.94091514 -8.97412109 105.37231445 C-8.96869609 96.64061527 -8.97042816 87.90893951 -8.9759475 79.17724091 C-8.98049908 71.67475325 -8.98111866 64.17227261 -8.97850883 56.66978401 C-8.97695501 52.19200281 -8.97672731 47.71423258 -8.98004532 43.2364521 C-8.98295312 39.01677175 -8.98089529 34.79712123 -8.97515106 30.57744408 C-8.97383822 29.03562087 -8.97419223 27.49379512 -8.97641373 25.95197296 C-8.99946284 8.31599442 -8.99946284 8.31599442 -7.84375 1.1328125 C-5.93525052 -0.77568698 -2.52896226 0.00221617 0 0 Z " fill="#FDFDFC" transform="translate(51.84375,22.8671875)"/>
<path d="M0 0 C2.203125 2.2734375 2.203125 2.2734375 4.25 5.375 C5.02658803 6.48596376 5.80929651 7.59267096 6.59765625 8.6953125 C7.19344482 9.5311084 7.19344482 9.5311084 7.80126953 10.38378906 C17.95570059 24.07469203 34.16120325 32.69720075 50.77877808 35.58737183 C56.9057559 36.37221799 63.05450792 36.34095764 69.22265625 36.37890625 C70.6594705 36.39511992 72.09627409 36.41230382 73.5330658 36.43040466 C77.2787484 36.47566541 81.02444599 36.51070531 84.77026367 36.54260254 C90.7958725 36.59490706 96.82132664 36.6596016 102.84673882 36.73081779 C104.94623756 36.75361933 107.04571621 36.76989683 109.14527893 36.78553772 C111.04381874 36.80577248 111.04381874 36.80577248 112.98071289 36.82641602 C114.6563607 36.84068382 114.6563607 36.84068382 116.36585999 36.85523987 C119 37 119 37 121 38 C121 48.56 121 59.12 121 70 C116.74364495 72.12817752 114.86603116 72.23749917 110.20629883 72.19873047 C109.19299751 72.19417595 109.19299751 72.19417595 108.15922546 72.18952942 C105.92492536 72.17624942 103.69116031 72.14755444 101.45703125 72.1171875 C99.88921962 72.10114358 98.32140435 72.08545324 96.75358582 72.07009888 C93.45904501 72.03508856 90.16473151 71.99174883 86.87036133 71.94335938 C82.69755554 71.88327484 78.52502514 71.84957292 74.3518877 71.82330132 C71.10579777 71.79873258 67.860101 71.75643666 64.61426353 71.70956802 C63.07932694 71.69000728 61.54430122 71.67633746 60.00925636 71.66924667 C45.87835884 71.5905717 31.93949558 69.51255014 19 63.5 C18.2663623 63.16452148 17.53272461 62.82904297 16.77685547 62.48339844 C-4.95805006 52.08743379 -21.33680029 35.40613538 -32.3203125 14.12109375 C-33.14853275 11.53647539 -33.05465341 10.49097925 -32 8 C-29.93041992 6.91918945 -29.93041992 6.91918945 -27.23046875 6.11328125 C-26.25916016 5.81486328 -25.28785156 5.51644531 -24.28710938 5.20898438 C-22.75280273 4.76522461 -22.75280273 4.76522461 -21.1875 4.3125 C-19.6705957 3.85133789 -19.6705957 3.85133789 -18.12304688 3.38085938 C-4.82108723 -0.63698303 -4.82108723 -0.63698303 0 0 Z " fill="#FDFDFC" transform="translate(134,213)"/>
<path d="M0 0 C0.33 0 0.66 0 1 0 C2.25045313 7.71906016 2.12693075 15.42322563 2.09765625 23.21875 C2.09578817 24.68705192 2.09436611 26.15535446 2.09336853 27.62365723 C2.08957409 31.46392578 2.07977049 35.30415574 2.06866455 39.14440918 C2.05838392 43.07282998 2.05385674 47.00125709 2.04882812 50.9296875 C2.03814508 58.61980915 2.02110614 66.30989914 2 74 C2.66 74.33 3.32 74.66 4 75 C4.66 75.99 5.32 76.98 6 78 C6.825 77.814375 7.65 77.62875 8.5 77.4375 C11.83076538 77.02115433 14.55786024 77.3063444 17.85945511 77.75395095 C21.18057323 78.13570326 24.49580012 78.13453171 27.83349609 78.12025452 C28.57945447 78.12110894 29.32541285 78.12196337 30.09397602 78.12284368 C32.57048834 78.12447868 35.04693152 78.11900984 37.5234375 78.11352539 C39.30784605 78.11324306 41.09225472 78.11340214 42.87666321 78.1139679 C47.70455814 78.1142541 52.53242809 78.10838599 57.36031723 78.10139394 C62.41184105 78.09513092 67.46336548 78.09455427 72.51489258 78.09336853 C82.07340124 78.0902639 91.63189842 78.08206223 101.19040203 78.07201904 C112.07550586 78.06083092 122.96061024 78.05534065 133.84571838 78.05032361 C156.23048528 78.03987889 178.61524199 78.02229627 201 78 C201.33 78.99 201.66 79.98 202 81 C176.69605456 81.02335945 151.39211075 81.04099417 126.0881567 81.05181217 C114.33912228 81.05696864 102.59009457 81.06399902 90.84106445 81.07543945 C80.60072483 81.08540607 70.36039006 81.09185815 60.12004572 81.09408849 C54.69779616 81.09539223 49.27556047 81.09845684 43.85331535 81.10573006 C38.74888348 81.11252144 33.64447121 81.11461059 28.54003525 81.11310768 C26.6675703 81.1133826 24.7951047 81.11536922 22.92264366 81.11920547 C20.36331705 81.12419141 17.80406409 81.12298021 15.24473572 81.12025452 C14.50639069 81.12316736 13.76804566 81.1260802 13.00732654 81.12908131 C8.56011467 81.11630776 4.37402923 80.72172644 0 80 C-0.85516635 75.56163945 -1.12649379 71.36604458 -1.12939453 66.84887695 C-1.13114685 66.16031616 -1.13289917 65.47175537 -1.13470459 64.7623291 C-1.13907787 62.50428693 -1.13620213 60.24632411 -1.1328125 57.98828125 C-1.13348661 56.41220586 -1.13445753 54.83613058 -1.13571167 53.26005554 C-1.13718231 49.96592209 -1.13505361 46.67181583 -1.13037109 43.37768555 C-1.12466009 39.15419266 -1.12796547 34.93076312 -1.13394356 30.70727253 C-1.13755428 27.45681784 -1.13640847 24.20637822 -1.13381577 20.95592308 C-1.13314864 19.39818502 -1.13396743 17.84044559 -1.13629532 16.28270912 C-1.13883175 14.10941555 -1.13496788 11.93622532 -1.12939453 9.76293945 C-1.12859894 8.52639114 -1.12780334 7.28984283 -1.12698364 6.01582336 C-1 3 -1 3 0 0 Z " fill="#ECEFEA" transform="translate(44,254)"/>
<path d="M0 0 C0.33 0 0.66 0 1 0 C1 19.14 1 38.28 1 58 C6.2907959 57.99476318 11.5815918 57.98952637 17.03271484 57.98413086 C34.47109974 57.96759575 51.90948493 57.95647825 69.3478756 57.94818783 C79.92560602 57.94302567 90.50332902 57.9359845 101.08105469 57.92456055 C110.29772179 57.91461126 119.51438353 57.90814599 128.73105586 57.90591151 C133.61379512 57.90460482 138.49651903 57.90152158 143.37925339 57.89426994 C147.97068535 57.88750589 152.56209556 57.88538383 157.15353203 57.88689232 C158.8426532 57.88661617 160.53177507 57.88461332 162.22089195 57.88079453 C164.5192265 57.87585128 166.81747791 57.87700407 169.11581421 57.87974548 C171.0488141 57.87836279 171.0488141 57.87836279 173.02086449 57.87695217 C176 58 176 58 178 59 C178 69.56 178 80.12 178 91 C177.67 91 177.34 91 177 91 C176.67 84.4 176.34 77.8 176 71 C175.67 71 175.34 71 175 71 C175.33 67.37 175.66 63.74 176 60 C154.64207537 60.10733725 133.28418561 60.22011609 111.92632389 60.33933926 C102.00908115 60.39457266 92.09183482 60.44803817 82.17456055 60.49731445 C73.52876344 60.54027762 64.88299175 60.58658571 56.23723406 60.63687855 C51.66113025 60.66338203 47.08503117 60.68823212 42.50889778 60.70907402 C38.19730388 60.728764 33.88575794 60.75294335 29.57420731 60.78049088 C27.99607788 60.78979626 26.41793799 60.79749442 24.83979225 60.80341911 C17.1676264 60.8330974 9.61102711 60.93742424 2 62 C2 61.34 2 60.68 2 60 C1.01 60 0.02 60 -1 60 C-1.02538249 52.41944088 -1.04288059 44.83889274 -1.05493164 37.25830078 C-1.05995629 34.68017161 -1.06677708 32.10204529 -1.07543945 29.52392578 C-1.08758677 25.81542254 -1.09324706 22.10695703 -1.09765625 18.3984375 C-1.10281754 17.24822113 -1.10797882 16.09800476 -1.11329651 14.91293335 C-1.11337204 13.83226593 -1.11344757 12.75159851 -1.11352539 11.63818359 C-1.115746 10.69220306 -1.11796661 9.74622253 -1.12025452 8.77157593 C-0.99054911 5.78217972 -0.54720934 2.93930848 0 0 Z " fill="#E6E8E3" transform="translate(77,242)"/>
<path d="M0 0 C5.01238308 1.8567945 9.66599141 4.39267774 14.32617188 6.99023438 C25.57805305 12.8766865 38.06281895 13.44788216 50.515625 13.4765625 C51.94815496 13.4909192 53.38067141 13.50668432 54.81317139 13.52377319 C58.5341731 13.56510476 62.25509087 13.59045486 65.97625732 13.61126709 C71.97216415 13.64748106 77.96786528 13.70805694 83.96355438 13.76975632 C86.04977869 13.7888037 88.13594686 13.80055175 90.222229 13.81118774 C92.1062442 13.82658096 92.1062442 13.82658096 94.02832031 13.84228516 C95.6903952 13.85202866 95.6903952 13.85202866 97.38604736 13.86196899 C100 14 100 14 102 15 C102 25.56 102 36.12 102 47 C100.515 47.495 100.515 47.495 99 48 C98.97530679 43.7641643 98.95714329 39.52836658 98.94506836 35.29248047 C98.94003526 33.8510668 98.93320827 32.40965824 98.92456055 30.96826172 C98.91245017 28.89809915 98.90676153 26.82800399 98.90234375 24.7578125 C98.89710693 23.5114502 98.89187012 22.26508789 98.88647461 20.98095703 C99 18 99 18 100 16 C99.14381577 16.00888245 98.28763153 16.01776489 97.40550232 16.0269165 C89.27220301 16.10760861 81.13904128 16.16823879 73.00543118 16.20724869 C68.82546625 16.22797943 64.64583654 16.25602546 60.46606445 16.30175781 C56.4200373 16.34574153 52.37432921 16.36924569 48.32808113 16.37950897 C46.79695689 16.38680748 45.26584687 16.40105448 43.73486137 16.42292023 C32.09526876 16.58229914 20.44778572 15.73706668 10 10 C10 9.34 10 8.68 10 8 C7.525 7.01 7.525 7.01 5 6 C5 5.34 5 4.68 5 4 C4.360625 3.896875 3.72125 3.79375 3.0625 3.6875 C2.381875 3.460625 1.70125 3.23375 1 3 C0.67 2.01 0.34 1.02 0 0 Z " fill="#DFE1DC" transform="translate(153,236)"/>
<path d="M0 0 C1.29349365 0.00523682 2.5869873 0.01047363 3.91967773 0.01586914 C4.9496714 0.01799156 4.9496714 0.01799156 6.00047302 0.02015686 C8.20144949 0.0257706 10.40232557 0.03832532 12.60327148 0.05102539 C14.09220231 0.05603863 15.58113473 0.06060184 17.07006836 0.06469727 C20.72700223 0.07574446 24.38387707 0.09301826 28.04077148 0.11352539 C28.04077148 0.44352539 28.04077148 0.77352539 28.04077148 1.11352539 C21.14508149 2.0191641 14.42736343 2.23533859 7.47827148 2.17602539 C5.67135351 2.16464648 3.86443288 2.1536857 2.05751038 2.14305115 C1.11794526 2.1374993 0.17838015 2.13194746 -0.78965664 2.12622738 C-1.50561536 2.12203572 -2.22157408 2.11784407 -2.95922852 2.11352539 C-2.92944695 2.65644981 -2.89966539 3.19937424 -2.86898136 3.75875092 C-1.89943116 22.12198515 -1.82470611 40.45491479 -1.85783458 58.83634377 C-1.86419332 62.97622122 -1.86468161 67.11609986 -1.86585999 71.25598145 C-1.86893711 79.05378508 -1.87710038 86.85157428 -1.88720948 94.64937162 C-1.8984847 103.54455742 -1.90390947 112.439744 -1.90890491 121.33493519 C-1.91928711 139.59447337 -1.93681451 157.85399821 -1.95922852 176.11352539 C-2.61922852 176.11352539 -3.27922852 176.11352539 -3.95922852 176.11352539 C-5.36891725 173.29414792 -5.08520297 170.95141782 -5.08621216 167.79689026 C-5.08777215 167.14140715 -5.08933214 166.48592404 -5.0909394 165.81057781 C-5.09494297 163.60367646 -5.0917621 161.39684333 -5.08862305 159.18994141 C-5.08997749 157.61145487 -5.09175767 156.03296865 -5.09393311 154.45448303 C-5.09850566 150.15647145 -5.09671772 145.85848379 -5.09355402 141.56047177 C-5.09102552 137.05992139 -5.0933697 132.55937309 -5.09494019 128.05882263 C-5.09676213 120.49022046 -5.09435668 112.92162803 -5.08959961 105.35302734 C-5.08417461 96.62132816 -5.08590668 87.8896524 -5.09142601 79.1579538 C-5.09597759 71.65546614 -5.09659717 64.1529855 -5.09398735 56.6504969 C-5.09243353 52.1727157 -5.09220583 47.69494547 -5.09552383 43.21716499 C-5.09843164 38.99748465 -5.09637381 34.77783412 -5.09062958 30.55815697 C-5.08931673 29.01633376 -5.08967075 27.47450801 -5.09189224 25.93268585 C-5.11494136 8.29670731 -5.11494136 8.29670731 -3.95922852 1.11352539 C-2.95922852 0.11352539 -2.95922852 0.11352539 0 0 Z " fill="#EBEDEA" transform="translate(47.959228515625,22.886474609375)"/>
<path d="M0 0 C-0.60183749 2.02045442 -1.27306096 4.02111039 -2 6 C-2.66 6.33 -3.32 6.66 -4 7 C-3.67 5.35 -3.34 3.7 -3 2 C-28.18988152 2.72698593 -53.34971488 3.51869841 -78.4375 6 C-79.30462616 6.08358765 -80.17175232 6.16717529 -81.06515503 6.2532959 C-83.50169639 6.49165542 -85.93650936 6.74248599 -88.37109375 7 C-89.07709717 7.07083801 -89.78310059 7.14167603 -90.51049805 7.21466064 C-94.3290279 7.64368122 -97.48222218 8.48602929 -101 10 C-103.67609122 10.3972754 -106.31241141 10.7291482 -109 11 C-110.40397474 11.16387292 -111.80762691 11.33053379 -113.2109375 11.5 C-115.3161149 11.75277928 -117.42120181 12.00536645 -119.52734375 12.25 C-123.38610283 12.67730207 -123.38610283 12.67730207 -127 14 C-129.6723621 14.13415472 -132.32250488 14.04318541 -135 14 C-130.28719187 11.42630041 -125.35247143 10.65773155 -120.125 9.625 C-119.02873291 9.40803467 -117.93246582 9.19106934 -116.80297852 8.9675293 C-95.40546605 4.86642701 -73.73088838 2.4261867 -52 1 C-51.15308594 0.94215332 -50.30617188 0.88430664 -49.43359375 0.82470703 C-32.97092214 -0.2605669 -16.48909788 -0.10414842 0 0 Z " fill="#D9DBD4" transform="translate(261,157)"/>
<path d="M0 0 C-3.97751223 3.84035664 -8.15181833 5.24393822 -13.26953125 6.984375 C-16.7897031 8.29373792 -19.78022549 10.08183646 -23 12 C-23.66 12 -24.32 12 -25 12 C-25.33 12.99 -25.66 13.98 -26 15 C-26.99 15.66 -27.98 16.32 -29 17 C-29.66 16.67 -30.32 16.34 -31 16 C-31.2475 16.556875 -31.495 17.11375 -31.75 17.6875 C-34.32998364 22.46046974 -36.3216183 24.99998636 -41.5625 26.625 C-42.32691406 26.82351562 -43.09132813 27.02203125 -43.87890625 27.2265625 C-46.27244327 28.09934395 -47.38683788 29.05137909 -49 31 C-49.28875 31.680625 -49.5775 32.36125 -49.875 33.0625 C-51.41329016 35.71177751 -53.15111923 36.10035344 -56 37 C-48.42064778 19.8021805 -23.20263008 8.22538207 -7.1484375 0.65234375 C-6.0644165 0.13982056 -6.0644165 0.13982056 -4.95849609 -0.38305664 C-3 -1 -3 -1 0 0 Z " fill="#D8DBD8" transform="translate(91,183)"/>
<path d="M0 0 C15.18 0 30.36 0 46 0 C46 10.56 46 21.12 46 32 C45.01 32.33 44.02 32.66 43 33 C42.97530679 28.7641643 42.95714329 24.52836658 42.94506836 20.29248047 C42.94003526 18.8510668 42.93320827 17.40965824 42.92456055 15.96826172 C42.91245017 13.89809915 42.90676153 11.82800399 42.90234375 9.7578125 C42.89710693 8.5114502 42.89187012 7.26508789 42.88647461 5.98095703 C43 3 43 3 44 1 C29.48 1 14.96 1 0 1 C0 0.67 0 0.34 0 0 Z " fill="#E8EAE5" transform="translate(209,251)"/>
<path d="M0 0 C0.66 0.33 1.32 0.66 2 1 C1.24074219 1.54269531 0.48148438 2.08539063 -0.30078125 2.64453125 C-1.79158203 3.71767578 -1.79158203 3.71767578 -3.3125 4.8125 C-4.29863281 5.52019531 -5.28476563 6.22789063 -6.30078125 6.95703125 C-8.41185215 8.55484613 -10.20859727 10.07205743 -12 12 C-14.90219105 14.98511079 -17.88085681 17.75853278 -21.0625 20.4375 C-25.31097247 24.13391107 -28.25912378 27.68476182 -30 33.125 C-31.1218428 36.35029805 -32.36843402 37.86185264 -35 40 C-35.66 40 -36.32 40 -37 40 C-37.268125 40.886875 -37.53625 41.77375 -37.8125 42.6875 C-38.91710819 45.76877548 -40.22849144 48.26221405 -42 51 C-42.33 50.34 -42.66 49.68 -43 49 C-41.77298029 46.25051112 -40.48749011 43.64524026 -39.0625 41 C-38.65080566 40.23051025 -38.23911133 39.46102051 -37.81494141 38.66821289 C-34.4617176 32.55067119 -30.62768068 27.22542277 -26 22 C-25.484375 21.34257813 -24.96875 20.68515625 -24.4375 20.0078125 C-18.15570367 12.18697607 -8.98049281 4.55416451 0 0 Z " fill="#D3D5D0" transform="translate(142,88)"/>
<path d="M0 0 C1 3 1 3 -0.25 5.875 C-0.8275 6.90625 -1.405 7.9375 -2 9 C-2.495 9.886875 -2.99 10.77375 -3.5 11.6875 C-5 14 -5 14 -6.4609375 15.38671875 C-10.99468578 20.13909957 -12.31823816 26.59258617 -12.79296875 32.9296875 C-13.23385227 37.33852267 -15.01518589 41.10511374 -17 45 C-18.05638217 29.94655408 -11.83476383 14.10726066 -2.24609375 2.56640625 C-1.50488281 1.71949219 -0.76367188 0.87257812 0 0 Z " fill="#DCDED9" transform="translate(34,220)"/>
<path d="M0 0 C-2.82741587 1.88494391 -5.21548252 2.92841858 -8.3828125 4.1015625 C-9.46022705 4.50560303 -10.5376416 4.90964355 -11.64770508 5.32592773 C-12.7952124 5.75462158 -13.94271973 6.18331543 -15.125 6.625 C-32.45287994 13.14045782 -32.45287994 13.14045782 -48.82421875 21.72265625 C-51 23 -51 23 -53 23 C-52 20 -52 20 -49.59375 18.53515625 C-48.5728125 18.04917969 -47.551875 17.56320313 -46.5 17.0625 C-45.40558594 16.53914063 -44.31117187 16.01578125 -43.18359375 15.4765625 C-42.13300781 14.98929688 -41.08242187 14.50203125 -40 14 C-39.22785156 13.63648438 -38.45570312 13.27296875 -37.66015625 12.8984375 C-33.31968324 10.91006439 -28.90269802 9.18856339 -24.4375 7.5 C-20.66767337 6.07310301 -17.02138174 4.59543164 -13.4375 2.75 C-8.68531321 0.3307049 -5.32265445 -0.12096942 0 0 Z " fill="#D5D7D3" transform="translate(114,209)"/>
<path d="M0 0 C1.45702971 0.00502424 2.9140611 0.00958551 4.37109375 0.01367188 C7.9140977 0.02460612 11.45703797 0.04182 15 0.0625 C14.39816251 2.08295442 13.72693904 4.08361039 13 6.0625 C12.34 6.3925 11.68 6.7225 11 7.0625 C11.33 5.4125 11.66 3.7625 12 2.0625 C-6.81 2.5575 -6.81 2.5575 -26 3.0625 C-20.53530694 -2.40219306 -7.43489142 -0.0447072 0 0 Z " fill="#E4E5E0" transform="translate(246,156.9375)"/>
<path d="M0 0 C1.77074917 -0.02705729 3.54161711 -0.04642195 5.3125 -0.0625 C6.29863281 -0.07410156 7.28476563 -0.08570313 8.30078125 -0.09765625 C11 0 11 0 14 1 C20.38923941 2.02652046 26.82756676 2.19570398 33.28515625 2.31640625 C34.69769936 2.3475779 34.69769936 2.3475779 36.13877869 2.37937927 C39.11328645 2.44416778 42.0878738 2.50342701 45.0625 2.5625 C47.09310681 2.60575265 49.12370591 2.64936896 51.15429688 2.69335938 C56.10278541 2.79977543 61.05135306 2.90123666 66 3 C66 3.33 66 3.66 66 4 C58.6900919 4.07667432 51.38028924 4.12885951 44.07006836 4.16479492 C41.5882581 4.17979124 39.10647394 4.20019501 36.62475586 4.22631836 C33.03753176 4.2631067 29.45066096 4.27981857 25.86328125 4.29296875 C24.22496086 4.31619453 24.22496086 4.31619453 22.55354309 4.33988953 C14.6900019 4.3415703 7.58328483 3.04824315 0 1 C0 0.67 0 0.34 0 0 Z " fill="#F3F3F1" transform="translate(166,280)"/>
<path d="M0 0 C-0.65226562 0.44730469 -1.30453125 0.89460938 -1.9765625 1.35546875 C-9.65557136 6.66734951 -16.00448832 11.65949524 -21.58203125 19.20703125 C-22.04996094 19.79871094 -22.51789063 20.39039063 -23 21 C-23.33 21 -23.66 21 -24 21 C-24 19.02 -24 17.04 -24 15 C-22.68 14.67 -21.36 14.34 -20 14 C-20 13.01 -20 12.02 -20 11 C-19.34 11 -18.68 11 -18 11 C-18 10.34 -18 9.68 -18 9 C-5.95330739 -2.14319066 -5.95330739 -2.14319066 0 0 Z " fill="#E7E7E5" transform="translate(162,117)"/>
<path d="M0 0 C-3.34520258 1.93242285 -6.44767482 2.5463853 -10.25 3.125 C-11.32765625 3.29257813 -12.4053125 3.46015625 -13.515625 3.6328125 C-14.33546875 3.75398438 -15.1553125 3.87515625 -16 4 C-16 4.66 -16 5.32 -16 6 C-16.9075 6.061875 -17.815 6.12375 -18.75 6.1875 C-23.53229594 6.84846773 -27.7125793 8.87789251 -32.109375 10.7890625 C-35.37657349 12.15775376 -38.5691867 13.14229667 -42 14 C-39.29766744 10.71930844 -35.74255794 9.23103053 -31.9375 7.5625 C-30.89468872 7.10508423 -30.89468872 7.10508423 -29.83081055 6.63842773 C-20.75071241 2.83916864 -9.91960921 -0.4891326 0 0 Z " fill="#CACCC7" transform="translate(186,74)"/>
<path d="M0 0 C0.33 0 0.66 0 1 0 C1.8810264 4.60892817 2.20319865 9.12487153 2.31640625 13.8046875 C2.33718735 14.5286673 2.35796844 15.25264709 2.37937927 15.99856567 C2.44428853 18.29062239 2.50348437 20.58278474 2.5625 22.875 C2.60574112 24.43751053 2.64935711 26.00001072 2.69335938 27.5625 C2.79990896 31.37489426 2.90133795 35.1873938 3 39 C2.34 39 1.68 39 1 39 C-0.61301773 35.77396455 -0.12053599 32.25289962 -0.09765625 28.7109375 C-0.0962413 27.89251373 -0.09482635 27.07408997 -0.09336853 26.23086548 C-0.0877629 23.61220675 -0.07520948 20.99363296 -0.0625 18.375 C-0.05748572 16.60156373 -0.05292269 14.82812613 -0.04882812 13.0546875 C-0.03779164 8.70309218 -0.02052325 4.3515605 0 0 Z " fill="#DDDFD8" transform="translate(43,160)"/>
<path d="M0 0 C8.56745222 3.15550195 8.56745222 3.15550195 10.3125 6.5625 C10.6528125 7.7690625 10.6528125 7.7690625 11 9 C12.30518475 10.03647024 13.63461347 11.04422943 15 12 C15 12.66 15 13.32 15 14 C15.99 14 16.98 14 18 14 C18 14.99 18 15.98 18 17 C18.78375 17.268125 19.5675 17.53625 20.375 17.8125 C23 19 23 19 25 22 C15.13592847 18.50829326 6.76665271 9.74565779 0 2 C0 1.34 0 0.68 0 0 Z " fill="#E4E6E2" transform="translate(115,246)"/>
<path d="M0 0 C0.66 0.33 1.32 0.66 2 1 C1.38125 1.598125 0.7625 2.19625 0.125 2.8125 C-2.13676954 5.00811144 -2.13676954 5.00811144 -4 8 C-6.05859375 8.84375 -6.05859375 8.84375 -8.4375 9.5 C-11.80116964 10.43096623 -13.75352005 11.28348732 -16 14 C-16.28875 14.680625 -16.5775 15.36125 -16.875 16.0625 C-18.41329016 18.71177751 -20.15111923 19.10035344 -23 20 C-19.49458466 11.88219605 -11.99534947 6.22619365 -4 3 C-3.34 3 -2.68 3 -2 3 C-2 2.34 -2 1.68 -2 1 C-1.34 0.67 -0.68 0.34 0 0 Z " fill="#EDF1ED" transform="translate(58,200)"/>
<path d="M0 0 C-3.10136748 2.06757832 -5.17064715 2.65743941 -8.76953125 3.47265625 C-9.90583984 3.73240234 -11.04214844 3.99214844 -12.21289062 4.25976562 C-13.40076172 4.52466797 -14.58863281 4.78957031 -15.8125 5.0625 C-16.98876953 5.33126953 -18.16503906 5.60003906 -19.37695312 5.87695312 C-24.57143428 7.05444716 -29.73845006 8.16229875 -35 9 C-34 7 -34 7 -32.14453125 6.21875 C-31.37496094 5.9815625 -30.60539062 5.744375 -29.8125 5.5 C-28.9978125 5.24476563 -28.183125 4.98953125 -27.34375 4.7265625 C-26.5703125 4.48679688 -25.796875 4.24703125 -25 4 C-23.4221875 3.443125 -23.4221875 3.443125 -21.8125 2.875 C-18.86805952 1.95895185 -16.0513649 1.43590927 -13 1 C-11.845 0.814375 -10.69 0.62875 -9.5 0.4375 C-6.28504294 0.03563037 -3.23473494 -0.07889597 0 0 Z " fill="#D4D5CD" transform="translate(149,200)"/>
<path d="M0 0 C1.10425806 3.29054081 0.877652 5.02361637 -0.3125 8.25 C-2.62823971 15.32469103 -3.22284034 22.63069782 -4 30 C-2.35 30 -0.7 30 1 30 C-2 32 -2 32 -6 32 C-6.28173611 24.94214913 -5.30365172 18.88800662 -3.5625 12.0625 C-3.33240234 11.11826172 -3.10230469 10.17402344 -2.86523438 9.20117188 C-1.17160979 2.34321959 -1.17160979 2.34321959 0 0 Z " fill="#CED0CC" transform="translate(98,140)"/>
<path d="M0 0 C5.19309603 1.93983354 10.03469317 4.51810078 14.94140625 7.078125 C19.23708119 9.27096478 23.31891676 10.82667365 28 12 C28 12.33 28 12.66 28 13 C22.20888513 12.67389839 17.87155604 12.38302503 13 9 C11.01200182 8.29835358 9.01301483 7.62627128 7 7 C6.34 6.67 5.68 6.34 5 6 C5 5.34 5 4.68 5 4 C4.360625 3.896875 3.72125 3.79375 3.0625 3.6875 C2.381875 3.460625 1.70125 3.23375 1 3 C0.67 2.01 0.34 1.02 0 0 Z " fill="#D7D7D4" transform="translate(153,236)"/>
<path d="M0 0 C0.66 0.33 1.32 0.66 2 1 C1.23816406 1.67804688 0.47632812 2.35609375 -0.30859375 3.0546875 C-6.97548817 9.04471236 -13.15244489 15.19261892 -19 22 C-19 19 -19 19 -18 16 C-17.175 15.360625 -16.35 14.72125 -15.5 14.0625 C-12.94441182 11.95413975 -12.34294784 11.2008465 -12 8 C-11.13375 7.9071875 -11.13375 7.9071875 -10.25 7.8125 C-7.12419715 6.68373786 -6.01847182 4.58616702 -4 2 C-1.875 0.625 -1.875 0.625 0 0 Z " fill="#E0E4DC" transform="translate(46,241)"/>
<path d="M0 0 C-0.33 0.99 -0.66 1.98 -1 3 C-3.03125 3.6953125 -3.03125 3.6953125 -5.5 4.125 C-8.53930366 4.47887416 -8.53930366 4.47887416 -11 6 C-12.51928038 6.07179964 -14.04167482 6.08392007 -15.5625 6.0625 C-16.38878906 6.05347656 -17.21507813 6.04445312 -18.06640625 6.03515625 C-18.70449219 6.02355469 -19.34257813 6.01195312 -20 6 C-16.67817543 3.78545028 -13.83578665 2.95381499 -10 1.875 C-8.7625 1.52179688 -7.525 1.16859375 -6.25 0.8046875 C-3 0 -3 0 0 0 Z " fill="#E2E4E0" transform="translate(125,171)"/>
<path d="M0 0 C2 1.8125 2 1.8125 4 4 C4 4.99 4 5.98 4 7 C4.66 7 5.32 7 6 7 C6.268125 8.134375 6.53625 9.26875 6.8125 10.4375 C7.4003125 12.2009375 7.4003125 12.2009375 8 14 C8.99 14.33 9.98 14.66 11 15 C11.99 16.485 11.99 16.485 13 18 C12.67 18.99 12.34 19.98 12 21 C0 6.37175793 0 6.37175793 0 0 Z " fill="#E1E3E0" transform="translate(102,225)"/>
<path d="M0 0 C0.625 1.8125 0.625 1.8125 1 4 C-1.47222834 7.70834251 -2.7031652 7.7440247 -6.9375 8.75 C-7.99839844 9.01296875 -9.05929688 9.2759375 -10.15234375 9.546875 C-13 10 -13 10 -16 9 C-14.88671875 7.015625 -14.88671875 7.015625 -13 5 C-10.08203125 4.609375 -10.08203125 4.609375 -6.8125 4.75 C-5.72582031 4.78609375 -4.63914062 4.8221875 -3.51953125 4.859375 C-2.68808594 4.90578125 -1.85664062 4.9521875 -1 5 C-0.67 3.35 -0.34 1.7 0 0 Z " fill="#DADCD8" transform="translate(128,156)"/>
<path d="M0 0 C0.33 0.66 0.66 1.32 1 2 C-0.36328125 4.8203125 -0.36328125 4.8203125 -2.3125 8.125 C-2.94800781 9.22070312 -3.58351563 10.31640625 -4.23828125 11.4453125 C-4.81964844 12.28835938 -5.40101562 13.13140625 -6 14 C-6.66 14 -7.32 14 -8 14 C-8 10.37 -8 6.74 -8 3 C-6 7 -6 7 -6 10 C-5.7525 8.72125 -5.505 7.4425 -5.25 6.125 C-4.29503515 2.20826011 -4.29503515 2.20826011 -1.875 0.5 C-1.25625 0.335 -0.6375 0.17 0 0 Z " fill="#DCDED8" transform="translate(25,263)"/>
<path d="M0 0 C1.77074917 -0.02705729 3.54161711 -0.04642195 5.3125 -0.0625 C6.29863281 -0.07410156 7.28476563 -0.08570313 8.30078125 -0.09765625 C11 0 11 0 14 1 C15.55853267 1.21803307 17.12182651 1.40366356 18.6875 1.5625 C19.89986328 1.68818359 19.89986328 1.68818359 21.13671875 1.81640625 C21.75160156 1.87699219 22.36648437 1.93757813 23 2 C23 2.66 23 3.32 23 4 C14.93489832 4.49155247 7.78273888 3.04937325 0 1 C0 0.67 0 0.34 0 0 Z " fill="#E3E4DF" transform="translate(166,280)"/>
<path d="M0 0 C-4.48536253 4.33069486 -10.02181831 6.49157335 -16 8 C-16.99 7.67 -17.98 7.34 -19 7 C-16.40163864 5.63354299 -13.79734444 4.28169331 -11.1875 2.9375 C-10.44951172 2.54755859 -9.71152344 2.15761719 -8.95117188 1.75585938 C-8.23896484 1.39169922 -7.52675781 1.02753906 -6.79296875 0.65234375 C-6.1383667 0.31195068 -5.48376465 -0.02844238 -4.80932617 -0.37915039 C-3 -1 -3 -1 0 0 Z " fill="#D0D5D0" transform="translate(91,183)"/>
<path d="M0 0 C1 3 1 3 -0.25 5.875 C-0.8275 6.90625 -1.405 7.9375 -2 9 C-2.515625 9.94875 -3.03125 10.8975 -3.5625 11.875 C-4.036875 12.57625 -4.51125 13.2775 -5 14 C-5.66 14 -6.32 14 -7 14 C-5.43181728 8.547001 -3.96189783 4.23513217 0 0 Z " fill="#E5E8E3" transform="translate(34,220)"/>
<path d="M0 0 C0.33 0.66 0.66 1.32 1 2 C0.07421875 4.20703125 0.07421875 4.20703125 -1.3125 6.8125 C-3.07804004 10.15640248 -4.64874945 13.46644809 -6 17 C-6.33 17 -6.66 17 -7 17 C-7 15.02 -7 13.04 -7 11 C-6.34 11 -5.68 11 -5 11 C-4.9175 9.9275 -4.835 8.855 -4.75 7.75 C-3.94523098 3.7261549 -3.12270126 2.51830747 0 0 Z " fill="#DADCD6" transform="translate(136,139)"/>
<path d="M0 0 C0.33 0 0.66 0 1 0 C0.98839844 0.75925781 0.97679687 1.51851563 0.96484375 2.30078125 C0.95582031 3.29464844 0.94679688 4.28851563 0.9375 5.3125 C0.92589844 6.29863281 0.91429687 7.28476562 0.90234375 8.30078125 C0.87670138 11.09963849 0.87670138 11.09963849 2 14 C1.0625 16.6875 1.0625 16.6875 0 19 C-0.33 19 -0.66 19 -1 19 C-2.05268874 12.18597425 -1.93833398 6.63198569 0 0 Z " fill="#F3F5EF" transform="translate(19,256)"/>
<path d="M0 0 C5.79355528 1.32768975 10.0999919 3.66544904 15 7 C12 8 12 8 9.3359375 6.85546875 C8.35882813 6.30503906 7.38171875 5.75460937 6.375 5.1875 C5.39273438 4.64480469 4.41046875 4.10210937 3.3984375 3.54296875 C1 2 1 2 0 0 Z " fill="#D9DAD6" transform="translate(140,268)"/>
<path d="M0 0 C0 0.66 0 1.32 0 2 C-0.66 2 -1.32 2 -2 2 C-2 2.66 -2 3.32 -2 4 C-3.76774419 4.53122363 -5.53934083 5.04964073 -7.3125 5.5625 C-8.29863281 5.85253906 -9.28476563 6.14257812 -10.30078125 6.44140625 C-13 7 -13 7 -16 6 C-15.32453125 5.73445312 -14.6490625 5.46890625 -13.953125 5.1953125 C-13.06109375 4.84210938 -12.1690625 4.48890625 -11.25 4.125 C-10.36828125 3.77695313 -9.4865625 3.42890625 -8.578125 3.0703125 C-6.0324254 2.05443666 -6.0324254 2.05443666 -3.796875 0.8671875 C-2 0 -2 0 0 0 Z " fill="#DFE2DE" transform="translate(130,202)"/>
<path d="M0 0 C0 3 0 3 -1.375 4.4375 C-1.91125 4.953125 -2.4475 5.46875 -3 6 C-3.28875 6.680625 -3.5775 7.36125 -3.875 8.0625 C-5.41329016 10.71177751 -7.15111923 11.10035344 -10 12 C-8.52278578 8.54798361 -6.56205999 6.35038064 -3.875 3.75 C-3.15054688 3.04359375 -2.42609375 2.3371875 -1.6796875 1.609375 C-1.12539063 1.07828125 -0.57109375 0.5471875 0 0 Z " fill="#D8DAD5" transform="translate(45,208)"/>
<path d="M0 0 C-1.32 1.32 -2.64 2.64 -4 4 C-4 3.34 -4 2.68 -4 2 C-5.31471568 2.28151087 -6.62675767 2.57553339 -7.9375 2.875 C-9.03384766 3.11863281 -9.03384766 3.11863281 -10.15234375 3.3671875 C-12.20700294 3.82961523 -12.20700294 3.82961523 -13 6 C-12.7734375 4.11328125 -12.7734375 4.11328125 -12 2 C-10.0390625 0.91796875 -10.0390625 0.91796875 -7.625 0.1875 C-6.83351563 -0.06644531 -6.04203125 -0.32039062 -5.2265625 -0.58203125 C-3 -1 -3 -1 0 0 Z " fill="#E4E6E3" transform="translate(114,219)"/>
<path d="M0 0 C0 0.66 0 1.32 0 2 C-0.99 2 -1.98 2 -3 2 C-3 2.66 -3 3.32 -3 4 C-6.3 4.33 -9.6 4.66 -13 5 C-10.79970166 2.79970166 -9.4218744 2.31417391 -6.5 1.375 C-5.30890625 0.98441406 -5.30890625 0.98441406 -4.09375 0.5859375 C-2 0 -2 0 0 0 Z " fill="#D4D6D4" transform="translate(104,177)"/>
<path d="M0 0 C0.62003906 0.18820313 1.24007812 0.37640625 1.87890625 0.5703125 C0.28098523 1.74551896 -1.32466283 2.91022497 -2.93359375 4.0703125 C-4.27357422 5.04484375 -4.27357422 5.04484375 -5.640625 6.0390625 C-8.12109375 7.5703125 -8.12109375 7.5703125 -11.12109375 7.5703125 C-3.13705982 -0.63550015 -3.13705982 -0.63550015 0 0 Z " fill="#DADBD7" transform="translate(160.12109375,116.4296875)"/>
<path d="M0 0 C0.66 0.33 1.32 0.66 2 1 C1.01 1.33 0.02 1.66 -1 2 C-2.21869929 4.50447516 -2.21869929 4.50447516 -3 7 C-4.98 7 -6.96 7 -9 7 C-6.25604436 4.05278838 -3.61662784 1.80831392 0 0 Z " fill="#E1E5E2" transform="translate(64,239)"/>
<path d="M0 0 C-4.455 2.97 -4.455 2.97 -9 6 C-10 4 -10 4 -9.4375 1.9375 C-8 0 -8 0 -5 -0.8125 C-2 -1 -2 -1 0 0 Z " fill="#E0E4DF" transform="translate(58,235)"/>
<path d="M0 0 C4.13621084 3.3810038 7.81316569 6.66590534 11 11 C5.74189816 8.85781036 2.35267403 5.07227888 0 0 Z " fill="#CCCDCA" transform="translate(142,225)"/>
<path d="M0 0 C-0.97566112 1.16959987 -1.955625 2.33561177 -2.9375 3.5 C-3.48277344 4.1496875 -4.02804688 4.799375 -4.58984375 5.46875 C-5.05519531 5.9740625 -5.52054688 6.479375 -6 7 C-6.33 7 -6.66 7 -7 7 C-7 5.02 -7 3.04 -7 1 C-3.375 -1.125 -3.375 -1.125 0 0 Z " fill="#DBDBD8" transform="translate(145,131)"/>
<path d="M0 0 C1.32 0.33 2.64 0.66 4 1 C-0.455 3.97 -0.455 3.97 -5 7 C-5.66 6.67 -6.32 6.34 -7 6 C-5.62209707 3.24419414 -3.62850007 2.51138754 -1 1 C-0.67 0.67 -0.34 0.34 0 0 Z " fill="#E4E6E2" transform="translate(58,187)"/>
<path d="M0 0 C0.33 0 0.66 0 1 0 C1.33 4.62 1.66 9.24 2 14 C1.34 14 0.68 14 0 14 C-1.41778293 11.16443413 -0.86257622 9.0091294 -0.5625 5.875 C-0.46066406 4.77929688 -0.35882813 3.68359375 -0.25390625 2.5546875 C-0.17011719 1.71164063 -0.08632813 0.86859375 0 0 Z " fill="#E7EAE3" transform="translate(44,185)"/>
<path d="M0 0 C-1.4562545 0.67119549 -2.91507867 1.33681807 -4.375 2 C-5.59316406 2.556875 -5.59316406 2.556875 -6.8359375 3.125 C-9 4 -9 4 -11 4 C-10.67 2.68 -10.34 1.36 -10 0 C-6.26432828 -0.76411467 -3.65188082 -1.07174763 0 0 Z " fill="#DEE0DA" transform="translate(173,112)"/>
<path d="M0 0 C1.79093191 -0.08086147 3.58289628 -0.13912702 5.375 -0.1875 C6.87160156 -0.23970703 6.87160156 -0.23970703 8.3984375 -0.29296875 C9.25695312 -0.19628906 10.11546875 -0.09960938 11 0 C11.66 0.99 12.32 1.98 13 3 C11.39504433 2.88557539 9.79101881 2.75805306 8.1875 2.625 C7.29417969 2.55539062 6.40085938 2.48578125 5.48046875 2.4140625 C3 2 3 2 0 0 Z " fill="#DADCD6" transform="translate(166,280)"/>
<path d="M0 0 C6.4 -0.49230769 6.4 -0.49230769 9.4375 2 C10.2109375 2.99 10.2109375 2.99 11 4 C7.0507432 3.44894091 3.65079826 2.61064629 0 1 C0 0.67 0 0.34 0 0 Z " fill="#DBDCD8" transform="translate(155,276)"/>
<path d="M0 0 C1.32 0.33 2.64 0.66 4 1 C4 1.99 4 2.98 4 4 C1.69 4.33 -0.62 4.66 -3 5 C-2.01 3.35 -1.02 1.7 0 0 Z " fill="#EAEBE6" transform="translate(115,161)"/>
<path d="M0 0 C0.33 0.66 0.66 1.32 1 2 C-0.3125 4.625 -0.3125 4.625 -2 7 C-2.66 7 -3.32 7 -4 7 C-4.33 6.01 -4.66 5.02 -5 4 C-3 2 -3 2 0 0 Z " fill="#E5EBE4" transform="translate(25,263)"/>
<path d="M0 0 C0 0.66 0 1.32 0 2 C-1.6396875 2.2165625 -1.6396875 2.2165625 -3.3125 2.4375 C-6.93122987 2.88288104 -6.93122987 2.88288104 -10 4 C-10 3.01 -10 2.02 -10 1 C-6.52674819 -0.1577506 -3.63932552 -0.06866652 0 0 Z " fill="#E1E4E0" transform="translate(170,78)"/>
</svg>
